<svg width="42" height="42" viewBox="0 0 42 42" fill="none" xmlns="http://www.w3.org/2000/svg">
<path fill-rule="evenodd" clip-rule="evenodd" d="M21.0009 12.6001C18.7196 12.6001 18.4333 12.6101 17.5372 12.6508C16.643 12.6918 16.0326 12.8334 15.4985 13.0411C14.946 13.2556 14.4773 13.5426 14.0104 14.0097C13.5432 14.4766 13.2562 14.9453 13.0409 15.4976C12.8327 16.0318 12.6909 16.6424 12.6507 17.5363C12.6106 18.4323 12.6001 18.7188 12.6001 21.0001C12.6001 23.2814 12.6102 23.5668 12.6508 24.4628C12.692 25.3571 12.8336 25.9675 13.0411 26.5016C13.2558 27.054 13.5428 27.5227 14.0099 27.9896C14.4766 28.4568 14.9453 28.7445 15.4974 28.9591C16.0319 29.1668 16.6425 29.3084 17.5365 29.3493C18.4326 29.3901 18.7187 29.4001 20.9998 29.4001C23.2813 29.4001 23.5668 29.3901 24.4628 29.3493C25.357 29.3084 25.9681 29.1668 26.5026 28.9591C27.0549 28.7445 27.5229 28.4568 27.9896 27.9896C28.4568 27.5227 28.7438 27.054 28.9591 26.5017C29.1656 25.9675 29.3073 25.3569 29.3493 24.463C29.3896 23.567 29.4001 23.2814 29.4001 21.0001C29.4001 18.7188 29.3896 18.4325 29.3493 17.5365C29.3073 16.6422 29.1656 16.0318 28.9591 15.4977C28.7438 14.9453 28.4568 14.4766 27.9896 14.0097C27.5223 13.5425 27.0551 13.2555 26.5021 13.0411C25.9666 12.8334 25.3558 12.6918 24.4615 12.6508C23.5655 12.6101 23.2803 12.6001 20.9983 12.6001H21.0009ZM20.2473 14.1138C20.471 14.1135 20.7205 14.1138 21.0009 14.1138C23.2437 14.1138 23.5095 14.1219 24.3952 14.1621C25.2142 14.1996 25.6587 14.3364 25.9548 14.4514C26.3468 14.6037 26.6263 14.7857 26.9201 15.0797C27.2141 15.3737 27.3962 15.6537 27.5488 16.0457C27.6637 16.3414 27.8008 16.7859 27.838 17.6049C27.8783 18.4904 27.887 18.7564 27.887 20.9982C27.887 23.2399 27.8783 23.5059 27.838 24.3914C27.8006 25.2104 27.6637 25.6549 27.5488 25.9507C27.3965 26.3427 27.2141 26.6218 26.9201 26.9156C26.6261 27.2096 26.347 27.3916 25.9548 27.5439C25.6591 27.6594 25.2142 27.7959 24.3952 27.8333C23.5097 27.8736 23.2437 27.8823 21.0009 27.8823C18.7579 27.8823 18.4921 27.8736 17.6065 27.8333C16.7875 27.7955 16.343 27.6587 16.0468 27.5437C15.6548 27.3914 15.3748 27.2094 15.0807 26.9154C14.7867 26.6214 14.6047 26.3421 14.4521 25.95C14.3372 25.6542 14.2001 25.2097 14.1629 24.3907C14.1226 23.5052 14.1146 23.2392 14.1146 20.9961C14.1146 18.7529 14.1226 18.4883 14.1629 17.6028C14.2003 16.7838 14.3372 16.3393 14.4521 16.0432C14.6044 15.6512 14.7867 15.3712 15.0807 15.0772C15.3748 14.7832 15.6548 14.6012 16.0468 14.4486C16.3429 14.3331 16.7875 14.1966 17.6065 14.159C18.3815 14.124 18.6818 14.1135 20.2473 14.1117V14.1138ZM25.4848 15.5086C24.9283 15.5086 24.4768 15.9596 24.4768 16.5162C24.4768 17.0727 24.9283 17.5242 25.4848 17.5242C26.0413 17.5242 26.4928 17.0727 26.4928 16.5162C26.4928 15.9597 26.0413 15.5086 25.4848 15.5086ZM21.0009 16.6863C18.6186 16.6863 16.6871 18.6178 16.6871 21.0001C16.6871 23.3824 18.6186 25.313 21.0009 25.313C23.3832 25.313 25.314 23.3824 25.314 21.0001C25.314 18.6178 23.3832 16.6863 21.0009 16.6863ZM21.0009 18.2001C22.5472 18.2001 23.8009 19.4536 23.8009 21.0001C23.8009 22.5464 22.5472 23.8001 21.0009 23.8001C19.4544 23.8001 18.2009 22.5464 18.2009 21.0001C18.2009 19.4536 19.4544 18.2001 21.0009 18.2001Z" fill="#00000E"/>
<path fill-rule="evenodd" clip-rule="evenodd" d="M21.0009 12.6001C18.7196 12.6001 18.4333 12.6101 17.5372 12.6508C16.643 12.6918 16.0326 12.8334 15.4985 13.0411C14.946 13.2556 14.4773 13.5426 14.0104 14.0097C13.5432 14.4766 13.2562 14.9453 13.0409 15.4976C12.8327 16.0318 12.6909 16.6424 12.6507 17.5363C12.6106 18.4323 12.6001 18.7188 12.6001 21.0001C12.6001 23.2814 12.6102 23.5668 12.6508 24.4628C12.692 25.3571 12.8336 25.9675 13.0411 26.5016C13.2558 27.054 13.5428 27.5227 14.0099 27.9896C14.4766 28.4568 14.9453 28.7445 15.4974 28.9591C16.0319 29.1668 16.6425 29.3084 17.5365 29.3493C18.4326 29.3901 18.7187 29.4001 20.9998 29.4001C23.2813 29.4001 23.5668 29.3901 24.4628 29.3493C25.357 29.3084 25.9681 29.1668 26.5026 28.9591C27.0549 28.7445 27.5229 28.4568 27.9896 27.9896C28.4568 27.5227 28.7438 27.054 28.9591 26.5017C29.1656 25.9675 29.3073 25.3569 29.3493 24.463C29.3896 23.567 29.4001 23.2814 29.4001 21.0001C29.4001 18.7188 29.3896 18.4325 29.3493 17.5365C29.3073 16.6422 29.1656 16.0318 28.9591 15.4977C28.7438 14.9453 28.4568 14.4766 27.9896 14.0097C27.5223 13.5425 27.0551 13.2555 26.5021 13.0411C25.9666 12.8334 25.3558 12.6918 24.4615 12.6508C23.5655 12.6101 23.2803 12.6001 20.9983 12.6001H21.0009ZM20.2473 14.1138C20.471 14.1135 20.7205 14.1138 21.0009 14.1138C23.2437 14.1138 23.5095 14.1219 24.3952 14.1621C25.2142 14.1996 25.6587 14.3364 25.9548 14.4514C26.3468 14.6037 26.6263 14.7857 26.9201 15.0797C27.2141 15.3737 27.3962 15.6537 27.5488 16.0457C27.6637 16.3414 27.8008 16.7859 27.838 17.6049C27.8783 18.4904 27.887 18.7564 27.887 20.9982C27.887 23.2399 27.8783 23.5059 27.838 24.3914C27.8006 25.2104 27.6637 25.6549 27.5488 25.9507C27.3965 26.3427 27.2141 26.6218 26.9201 26.9156C26.6261 27.2096 26.347 27.3916 25.9548 27.5439C25.6591 27.6594 25.2142 27.7959 24.3952 27.8333C23.5097 27.8736 23.2437 27.8823 21.0009 27.8823C18.7579 27.8823 18.4921 27.8736 17.6065 27.8333C16.7875 27.7955 16.343 27.6587 16.0468 27.5437C15.6548 27.3914 15.3748 27.2094 15.0807 26.9154C14.7867 26.6214 14.6047 26.3421 14.4521 25.95C14.3372 25.6542 14.2001 25.2097 14.1629 24.3907C14.1226 23.5052 14.1146 23.2392 14.1146 20.9961C14.1146 18.7529 14.1226 18.4883 14.1629 17.6028C14.2003 16.7838 14.3372 16.3393 14.4521 16.0432C14.6044 15.6512 14.7867 15.3712 15.0807 15.0772C15.3748 14.7832 15.6548 14.6012 16.0468 14.4486C16.3429 14.3331 16.7875 14.1966 17.6065 14.159C18.3815 14.124 18.6818 14.1135 20.2473 14.1117V14.1138ZM25.4848 15.5086C24.9283 15.5086 24.4768 15.9596 24.4768 16.5162C24.4768 17.0727 24.9283 17.5242 25.4848 17.5242C26.0413 17.5242 26.4928 17.0727 26.4928 16.5162C26.4928 15.9597 26.0413 15.5086 25.4848 15.5086ZM21.0009 16.6863C18.6186 16.6863 16.6871 18.6178 16.6871 21.0001C16.6871 23.3824 18.6186 25.313 21.0009 25.313C23.3832 25.313 25.314 23.3824 25.314 21.0001C25.314 18.6178 23.3832 16.6863 21.0009 16.6863ZM21.0009 18.2001C22.5472 18.2001 23.8009 19.4536 23.8009 21.0001C23.8009 22.5464 22.5472 23.8001 21.0009 23.8001C19.4544 23.8001 18.2009 22.5464 18.2009 21.0001C18.2009 19.4536 19.4544 18.2001 21.0009 18.2001Z" fill="black" fill-opacity="0.2"/>
<path fill-rule="evenodd" clip-rule="evenodd" d="M21.0009 12.6001C18.7196 12.6001 18.4333 12.6101 17.5372 12.6508C16.643 12.6918 16.0326 12.8334 15.4985 13.0411C14.946 13.2556 14.4773 13.5426 14.0104 14.0097C13.5432 14.4766 13.2562 14.9453 13.0409 15.4976C12.8327 16.0318 12.6909 16.6424 12.6507 17.5363C12.6106 18.4323 12.6001 18.7188 12.6001 21.0001C12.6001 23.2814 12.6102 23.5668 12.6508 24.4628C12.692 25.3571 12.8336 25.9675 13.0411 26.5016C13.2558 27.054 13.5428 27.5227 14.0099 27.9896C14.4766 28.4568 14.9453 28.7445 15.4974 28.9591C16.0319 29.1668 16.6425 29.3084 17.5365 29.3493C18.4326 29.3901 18.7187 29.4001 20.9998 29.4001C23.2813 29.4001 23.5668 29.3901 24.4628 29.3493C25.357 29.3084 25.9681 29.1668 26.5026 28.9591C27.0549 28.7445 27.5229 28.4568 27.9896 27.9896C28.4568 27.5227 28.7438 27.054 28.9591 26.5017C29.1656 25.9675 29.3073 25.3569 29.3493 24.463C29.3896 23.567 29.4001 23.2814 29.4001 21.0001C29.4001 18.7188 29.3896 18.4325 29.3493 17.5365C29.3073 16.6422 29.1656 16.0318 28.9591 15.4977C28.7438 14.9453 28.4568 14.4766 27.9896 14.0097C27.5223 13.5425 27.0551 13.2555 26.5021 13.0411C25.9666 12.8334 25.3558 12.6918 24.4615 12.6508C23.5655 12.6101 23.2803 12.6001 20.9983 12.6001H21.0009ZM20.2473 14.1138C20.471 14.1135 20.7205 14.1138 21.0009 14.1138C23.2437 14.1138 23.5095 14.1219 24.3952 14.1621C25.2142 14.1996 25.6587 14.3364 25.9548 14.4514C26.3468 14.6037 26.6263 14.7857 26.9201 15.0797C27.2141 15.3737 27.3962 15.6537 27.5488 16.0457C27.6637 16.3414 27.8008 16.7859 27.838 17.6049C27.8783 18.4904 27.887 18.7564 27.887 20.9982C27.887 23.2399 27.8783 23.5059 27.838 24.3914C27.8006 25.2104 27.6637 25.6549 27.5488 25.9507C27.3965 26.3427 27.2141 26.6218 26.9201 26.9156C26.6261 27.2096 26.347 27.3916 25.9548 27.5439C25.6591 27.6594 25.2142 27.7959 24.3952 27.8333C23.5097 27.8736 23.2437 27.8823 21.0009 27.8823C18.7579 27.8823 18.4921 27.8736 17.6065 27.8333C16.7875 27.7955 16.343 27.6587 16.0468 27.5437C15.6548 27.3914 15.3748 27.2094 15.0807 26.9154C14.7867 26.6214 14.6047 26.3421 14.4521 25.95C14.3372 25.6542 14.2001 25.2097 14.1629 24.3907C14.1226 23.5052 14.1146 23.2392 14.1146 20.9961C14.1146 18.7529 14.1226 18.4883 14.1629 17.6028C14.2003 16.7838 14.3372 16.3393 14.4521 16.0432C14.6044 15.6512 14.7867 15.3712 15.0807 15.0772C15.3748 14.7832 15.6548 14.6012 16.0468 14.4486C16.3429 14.3331 16.7875 14.1966 17.6065 14.159C18.3815 14.124 18.6818 14.1135 20.2473 14.1117V14.1138ZM25.4848 15.5086C24.9283 15.5086 24.4768 15.9596 24.4768 16.5162C24.4768 17.0727 24.9283 17.5242 25.4848 17.5242C26.0413 17.5242 26.4928 17.0727 26.4928 16.5162C26.4928 15.9597 26.0413 15.5086 25.4848 15.5086ZM21.0009 16.6863C18.6186 16.6863 16.6871 18.6178 16.6871 21.0001C16.6871 23.3824 18.6186 25.313 21.0009 25.313C23.3832 25.313 25.314 23.3824 25.314 21.0001C25.314 18.6178 23.3832 16.6863 21.0009 16.6863ZM21.0009 18.2001C22.5472 18.2001 23.8009 19.4536 23.8009 21.0001C23.8009 22.5464 22.5472 23.8001 21.0009 23.8001C19.4544 23.8001 18.2009 22.5464 18.2009 21.0001C18.2009 19.4536 19.4544 18.2001 21.0009 18.2001Z" fill="black" fill-opacity="0.2"/>
<path fill-rule="evenodd" clip-rule="evenodd" d="M21.0009 12.6001C18.7196 12.6001 18.4333 12.6101 17.5372 12.6508C16.643 12.6918 16.0326 12.8334 15.4985 13.0411C14.946 13.2556 14.4773 13.5426 14.0104 14.0097C13.5432 14.4766 13.2562 14.9453 13.0409 15.4976C12.8327 16.0318 12.6909 16.6424 12.6507 17.5363C12.6106 18.4323 12.6001 18.7188 12.6001 21.0001C12.6001 23.2814 12.6102 23.5668 12.6508 24.4628C12.692 25.3571 12.8336 25.9675 13.0411 26.5016C13.2558 27.054 13.5428 27.5227 14.0099 27.9896C14.4766 28.4568 14.9453 28.7445 15.4974 28.9591C16.0319 29.1668 16.6425 29.3084 17.5365 29.3493C18.4326 29.3901 18.7187 29.4001 20.9998 29.4001C23.2813 29.4001 23.5668 29.3901 24.4628 29.3493C25.357 29.3084 25.9681 29.1668 26.5026 28.9591C27.0549 28.7445 27.5229 28.4568 27.9896 27.9896C28.4568 27.5227 28.7438 27.054 28.9591 26.5017C29.1656 25.9675 29.3073 25.3569 29.3493 24.463C29.3896 23.567 29.4001 23.2814 29.4001 21.0001C29.4001 18.7188 29.3896 18.4325 29.3493 17.5365C29.3073 16.6422 29.1656 16.0318 28.9591 15.4977C28.7438 14.9453 28.4568 14.4766 27.9896 14.0097C27.5223 13.5425 27.0551 13.2555 26.5021 13.0411C25.9666 12.8334 25.3558 12.6918 24.4615 12.6508C23.5655 12.6101 23.2803 12.6001 20.9983 12.6001H21.0009ZM20.2473 14.1138C20.471 14.1135 20.7205 14.1138 21.0009 14.1138C23.2437 14.1138 23.5095 14.1219 24.3952 14.1621C25.2142 14.1996 25.6587 14.3364 25.9548 14.4514C26.3468 14.6037 26.6263 14.7857 26.9201 15.0797C27.2141 15.3737 27.3962 15.6537 27.5488 16.0457C27.6637 16.3414 27.8008 16.7859 27.838 17.6049C27.8783 18.4904 27.887 18.7564 27.887 20.9982C27.887 23.2399 27.8783 23.5059 27.838 24.3914C27.8006 25.2104 27.6637 25.6549 27.5488 25.9507C27.3965 26.3427 27.2141 26.6218 26.9201 26.9156C26.6261 27.2096 26.347 27.3916 25.9548 27.5439C25.6591 27.6594 25.2142 27.7959 24.3952 27.8333C23.5097 27.8736 23.2437 27.8823 21.0009 27.8823C18.7579 27.8823 18.4921 27.8736 17.6065 27.8333C16.7875 27.7955 16.343 27.6587 16.0468 27.5437C15.6548 27.3914 15.3748 27.2094 15.0807 26.9154C14.7867 26.6214 14.6047 26.3421 14.4521 25.95C14.3372 25.6542 14.2001 25.2097 14.1629 24.3907C14.1226 23.5052 14.1146 23.2392 14.1146 20.9961C14.1146 18.7529 14.1226 18.4883 14.1629 17.6028C14.2003 16.7838 14.3372 16.3393 14.4521 16.0432C14.6044 15.6512 14.7867 15.3712 15.0807 15.0772C15.3748 14.7832 15.6548 14.6012 16.0468 14.4486C16.3429 14.3331 16.7875 14.1966 17.6065 14.159C18.3815 14.124 18.6818 14.1135 20.2473 14.1117V14.1138ZM25.4848 15.5086C24.9283 15.5086 24.4768 15.9596 24.4768 16.5162C24.4768 17.0727 24.9283 17.5242 25.4848 17.5242C26.0413 17.5242 26.4928 17.0727 26.4928 16.5162C26.4928 15.9597 26.0413 15.5086 25.4848 15.5086ZM21.0009 16.6863C18.6186 16.6863 16.6871 18.6178 16.6871 21.0001C16.6871 23.3824 18.6186 25.313 21.0009 25.313C23.3832 25.313 25.314 23.3824 25.314 21.0001C25.314 18.6178 23.3832 16.6863 21.0009 16.6863ZM21.0009 18.2001C22.5472 18.2001 23.8009 19.4536 23.8009 21.0001C23.8009 22.5464 22.5472 23.8001 21.0009 23.8001C19.4544 23.8001 18.2009 22.5464 18.2009 21.0001C18.2009 19.4536 19.4544 18.2001 21.0009 18.2001Z" fill="black" fill-opacity="0.2"/>
<path fill-rule="evenodd" clip-rule="evenodd" d="M21.0009 12.6001C18.7196 12.6001 18.4333 12.6101 17.5372 12.6508C16.643 12.6918 16.0326 12.8334 15.4985 13.0411C14.946 13.2556 14.4773 13.5426 14.0104 14.0097C13.5432 14.4766 13.2562 14.9453 13.0409 15.4976C12.8327 16.0318 12.6909 16.6424 12.6507 17.5363C12.6106 18.4323 12.6001 18.7188 12.6001 21.0001C12.6001 23.2814 12.6102 23.5668 12.6508 24.4628C12.692 25.3571 12.8336 25.9675 13.0411 26.5016C13.2558 27.054 13.5428 27.5227 14.0099 27.9896C14.4766 28.4568 14.9453 28.7445 15.4974 28.9591C16.0319 29.1668 16.6425 29.3084 17.5365 29.3493C18.4326 29.3901 18.7187 29.4001 20.9998 29.4001C23.2813 29.4001 23.5668 29.3901 24.4628 29.3493C25.357 29.3084 25.9681 29.1668 26.5026 28.9591C27.0549 28.7445 27.5229 28.4568 27.9896 27.9896C28.4568 27.5227 28.7438 27.054 28.9591 26.5017C29.1656 25.9675 29.3073 25.3569 29.3493 24.463C29.3896 23.567 29.4001 23.2814 29.4001 21.0001C29.4001 18.7188 29.3896 18.4325 29.3493 17.5365C29.3073 16.6422 29.1656 16.0318 28.9591 15.4977C28.7438 14.9453 28.4568 14.4766 27.9896 14.0097C27.5223 13.5425 27.0551 13.2555 26.5021 13.0411C25.9666 12.8334 25.3558 12.6918 24.4615 12.6508C23.5655 12.6101 23.2803 12.6001 20.9983 12.6001H21.0009ZM20.2473 14.1138C20.471 14.1135 20.7205 14.1138 21.0009 14.1138C23.2437 14.1138 23.5095 14.1219 24.3952 14.1621C25.2142 14.1996 25.6587 14.3364 25.9548 14.4514C26.3468 14.6037 26.6263 14.7857 26.9201 15.0797C27.2141 15.3737 27.3962 15.6537 27.5488 16.0457C27.6637 16.3414 27.8008 16.7859 27.838 17.6049C27.8783 18.4904 27.887 18.7564 27.887 20.9982C27.887 23.2399 27.8783 23.5059 27.838 24.3914C27.8006 25.2104 27.6637 25.6549 27.5488 25.9507C27.3965 26.3427 27.2141 26.6218 26.9201 26.9156C26.6261 27.2096 26.347 27.3916 25.9548 27.5439C25.6591 27.6594 25.2142 27.7959 24.3952 27.8333C23.5097 27.8736 23.2437 27.8823 21.0009 27.8823C18.7579 27.8823 18.4921 27.8736 17.6065 27.8333C16.7875 27.7955 16.343 27.6587 16.0468 27.5437C15.6548 27.3914 15.3748 27.2094 15.0807 26.9154C14.7867 26.6214 14.6047 26.3421 14.4521 25.95C14.3372 25.6542 14.2001 25.2097 14.1629 24.3907C14.1226 23.5052 14.1146 23.2392 14.1146 20.9961C14.1146 18.7529 14.1226 18.4883 14.1629 17.6028C14.2003 16.7838 14.3372 16.3393 14.4521 16.0432C14.6044 15.6512 14.7867 15.3712 15.0807 15.0772C15.3748 14.7832 15.6548 14.6012 16.0468 14.4486C16.3429 14.3331 16.7875 14.1966 17.6065 14.159C18.3815 14.124 18.6818 14.1135 20.2473 14.1117V14.1138ZM25.4848 15.5086C24.9283 15.5086 24.4768 15.9596 24.4768 16.5162C24.4768 17.0727 24.9283 17.5242 25.4848 17.5242C26.0413 17.5242 26.4928 17.0727 26.4928 16.5162C26.4928 15.9597 26.0413 15.5086 25.4848 15.5086ZM21.0009 16.6863C18.6186 16.6863 16.6871 18.6178 16.6871 21.0001C16.6871 23.3824 18.6186 25.313 21.0009 25.313C23.3832 25.313 25.314 23.3824 25.314 21.0001C25.314 18.6178 23.3832 16.6863 21.0009 16.6863ZM21.0009 18.2001C22.5472 18.2001 23.8009 19.4536 23.8009 21.0001C23.8009 22.5464 22.5472 23.8001 21.0009 23.8001C19.4544 23.8001 18.2009 22.5464 18.2009 21.0001C18.2009 19.4536 19.4544 18.2001 21.0009 18.2001Z" fill="black" fill-opacity="0.2"/>
<path fill-rule="evenodd" clip-rule="evenodd" d="M21.0009 12.6001C18.7196 12.6001 18.4333 12.6101 17.5372 12.6508C16.643 12.6918 16.0326 12.8334 15.4985 13.0411C14.946 13.2556 14.4773 13.5426 14.0104 14.0097C13.5432 14.4766 13.2562 14.9453 13.0409 15.4976C12.8327 16.0318 12.6909 16.6424 12.6507 17.5363C12.6106 18.4323 12.6001 18.7188 12.6001 21.0001C12.6001 23.2814 12.6102 23.5668 12.6508 24.4628C12.692 25.3571 12.8336 25.9675 13.0411 26.5016C13.2558 27.054 13.5428 27.5227 14.0099 27.9896C14.4766 28.4568 14.9453 28.7445 15.4974 28.9591C16.0319 29.1668 16.6425 29.3084 17.5365 29.3493C18.4326 29.3901 18.7187 29.4001 20.9998 29.4001C23.2813 29.4001 23.5668 29.3901 24.4628 29.3493C25.357 29.3084 25.9681 29.1668 26.5026 28.9591C27.0549 28.7445 27.5229 28.4568 27.9896 27.9896C28.4568 27.5227 28.7438 27.054 28.9591 26.5017C29.1656 25.9675 29.3073 25.3569 29.3493 24.463C29.3896 23.567 29.4001 23.2814 29.4001 21.0001C29.4001 18.7188 29.3896 18.4325 29.3493 17.5365C29.3073 16.6422 29.1656 16.0318 28.9591 15.4977C28.7438 14.9453 28.4568 14.4766 27.9896 14.0097C27.5223 13.5425 27.0551 13.2555 26.5021 13.0411C25.9666 12.8334 25.3558 12.6918 24.4615 12.6508C23.5655 12.6101 23.2803 12.6001 20.9983 12.6001H21.0009ZM20.2473 14.1138C20.471 14.1135 20.7205 14.1138 21.0009 14.1138C23.2437 14.1138 23.5095 14.1219 24.3952 14.1621C25.2142 14.1996 25.6587 14.3364 25.9548 14.4514C26.3468 14.6037 26.6263 14.7857 26.9201 15.0797C27.2141 15.3737 27.3962 15.6537 27.5488 16.0457C27.6637 16.3414 27.8008 16.7859 27.838 17.6049C27.8783 18.4904 27.887 18.7564 27.887 20.9982C27.887 23.2399 27.8783 23.5059 27.838 24.3914C27.8006 25.2104 27.6637 25.6549 27.5488 25.9507C27.3965 26.3427 27.2141 26.6218 26.9201 26.9156C26.6261 27.2096 26.347 27.3916 25.9548 27.5439C25.6591 27.6594 25.2142 27.7959 24.3952 27.8333C23.5097 27.8736 23.2437 27.8823 21.0009 27.8823C18.7579 27.8823 18.4921 27.8736 17.6065 27.8333C16.7875 27.7955 16.343 27.6587 16.0468 27.5437C15.6548 27.3914 15.3748 27.2094 15.0807 26.9154C14.7867 26.6214 14.6047 26.3421 14.4521 25.95C14.3372 25.6542 14.2001 25.2097 14.1629 24.3907C14.1226 23.5052 14.1146 23.2392 14.1146 20.9961C14.1146 18.7529 14.1226 18.4883 14.1629 17.6028C14.2003 16.7838 14.3372 16.3393 14.4521 16.0432C14.6044 15.6512 14.7867 15.3712 15.0807 15.0772C15.3748 14.7832 15.6548 14.6012 16.0468 14.4486C16.3429 14.3331 16.7875 14.1966 17.6065 14.159C18.3815 14.124 18.6818 14.1135 20.2473 14.1117V14.1138ZM25.4848 15.5086C24.9283 15.5086 24.4768 15.9596 24.4768 16.5162C24.4768 17.0727 24.9283 17.5242 25.4848 17.5242C26.0413 17.5242 26.4928 17.0727 26.4928 16.5162C26.4928 15.9597 26.0413 15.5086 25.4848 15.5086ZM21.0009 16.6863C18.6186 16.6863 16.6871 18.6178 16.6871 21.0001C16.6871 23.3824 18.6186 25.313 21.0009 25.313C23.3832 25.313 25.314 23.3824 25.314 21.0001C25.314 18.6178 23.3832 16.6863 21.0009 16.6863ZM21.0009 18.2001C22.5472 18.2001 23.8009 19.4536 23.8009 21.0001C23.8009 22.5464 22.5472 23.8001 21.0009 23.8001C19.4544 23.8001 18.2009 22.5464 18.2009 21.0001C18.2009 19.4536 19.4544 18.2001 21.0009 18.2001Z" fill="black" fill-opacity="0.2"/>
<path fill-rule="evenodd" clip-rule="evenodd" d="M21.0009 12.6001C18.7196 12.6001 18.4333 12.6101 17.5372 12.6508C16.643 12.6918 16.0326 12.8334 15.4985 13.0411C14.946 13.2556 14.4773 13.5426 14.0104 14.0097C13.5432 14.4766 13.2562 14.9453 13.0409 15.4976C12.8327 16.0318 12.6909 16.6424 12.6507 17.5363C12.6106 18.4323 12.6001 18.7188 12.6001 21.0001C12.6001 23.2814 12.6102 23.5668 12.6508 24.4628C12.692 25.3571 12.8336 25.9675 13.0411 26.5016C13.2558 27.054 13.5428 27.5227 14.0099 27.9896C14.4766 28.4568 14.9453 28.7445 15.4974 28.9591C16.0319 29.1668 16.6425 29.3084 17.5365 29.3493C18.4326 29.3901 18.7187 29.4001 20.9998 29.4001C23.2813 29.4001 23.5668 29.3901 24.4628 29.3493C25.357 29.3084 25.9681 29.1668 26.5026 28.9591C27.0549 28.7445 27.5229 28.4568 27.9896 27.9896C28.4568 27.5227 28.7438 27.054 28.9591 26.5017C29.1656 25.9675 29.3073 25.3569 29.3493 24.463C29.3896 23.567 29.4001 23.2814 29.4001 21.0001C29.4001 18.7188 29.3896 18.4325 29.3493 17.5365C29.3073 16.6422 29.1656 16.0318 28.9591 15.4977C28.7438 14.9453 28.4568 14.4766 27.9896 14.0097C27.5223 13.5425 27.0551 13.2555 26.5021 13.0411C25.9666 12.8334 25.3558 12.6918 24.4615 12.6508C23.5655 12.6101 23.2803 12.6001 20.9983 12.6001H21.0009ZM20.2473 14.1138C20.471 14.1135 20.7205 14.1138 21.0009 14.1138C23.2437 14.1138 23.5095 14.1219 24.3952 14.1621C25.2142 14.1996 25.6587 14.3364 25.9548 14.4514C26.3468 14.6037 26.6263 14.7857 26.9201 15.0797C27.2141 15.3737 27.3962 15.6537 27.5488 16.0457C27.6637 16.3414 27.8008 16.7859 27.838 17.6049C27.8783 18.4904 27.887 18.7564 27.887 20.9982C27.887 23.2399 27.8783 23.5059 27.838 24.3914C27.8006 25.2104 27.6637 25.6549 27.5488 25.9507C27.3965 26.3427 27.2141 26.6218 26.9201 26.9156C26.6261 27.2096 26.347 27.3916 25.9548 27.5439C25.6591 27.6594 25.2142 27.7959 24.3952 27.8333C23.5097 27.8736 23.2437 27.8823 21.0009 27.8823C18.7579 27.8823 18.4921 27.8736 17.6065 27.8333C16.7875 27.7955 16.343 27.6587 16.0468 27.5437C15.6548 27.3914 15.3748 27.2094 15.0807 26.9154C14.7867 26.6214 14.6047 26.3421 14.4521 25.95C14.3372 25.6542 14.2001 25.2097 14.1629 24.3907C14.1226 23.5052 14.1146 23.2392 14.1146 20.9961C14.1146 18.7529 14.1226 18.4883 14.1629 17.6028C14.2003 16.7838 14.3372 16.3393 14.4521 16.0432C14.6044 15.6512 14.7867 15.3712 15.0807 15.0772C15.3748 14.7832 15.6548 14.6012 16.0468 14.4486C16.3429 14.3331 16.7875 14.1966 17.6065 14.159C18.3815 14.124 18.6818 14.1135 20.2473 14.1117V14.1138ZM25.4848 15.5086C24.9283 15.5086 24.4768 15.9596 24.4768 16.5162C24.4768 17.0727 24.9283 17.5242 25.4848 17.5242C26.0413 17.5242 26.4928 17.0727 26.4928 16.5162C26.4928 15.9597 26.0413 15.5086 25.4848 15.5086ZM21.0009 16.6863C18.6186 16.6863 16.6871 18.6178 16.6871 21.0001C16.6871 23.3824 18.6186 25.313 21.0009 25.313C23.3832 25.313 25.314 23.3824 25.314 21.0001C25.314 18.6178 23.3832 16.6863 21.0009 16.6863ZM21.0009 18.2001C22.5472 18.2001 23.8009 19.4536 23.8009 21.0001C23.8009 22.5464 22.5472 23.8001 21.0009 23.8001C19.4544 23.8001 18.2009 22.5464 18.2009 21.0001C18.2009 19.4536 19.4544 18.2001 21.0009 18.2001Z" fill="black" fill-opacity="0.2"/>
</svg>
