<svg width="42" height="42" viewBox="0 0 42 42" fill="none" xmlns="http://www.w3.org/2000/svg">
<path fill-rule="evenodd" clip-rule="evenodd" d="M22.7375 29.4001V20.9991H24.9119L25.2001 18.1041H22.7375L22.7412 16.6551C22.7412 15.9 22.8085 15.4955 23.8253 15.4955H25.1847V12.6001H23.01C20.3978 12.6001 19.4784 14.0045 19.4784 16.3663V18.1044H17.8501V20.9994H19.4784V29.4001H22.7375Z" fill="#00000E"/>
<path fill-rule="evenodd" clip-rule="evenodd" d="M22.7375 29.4001V20.9991H24.9119L25.2001 18.1041H22.7375L22.7412 16.6551C22.7412 15.9 22.8085 15.4955 23.8253 15.4955H25.1847V12.6001H23.01C20.3978 12.6001 19.4784 14.0045 19.4784 16.3663V18.1044H17.8501V20.9994H19.4784V29.4001H22.7375Z" fill="black" fill-opacity="0.2"/>
<path fill-rule="evenodd" clip-rule="evenodd" d="M22.7375 29.4001V20.9991H24.9119L25.2001 18.1041H22.7375L22.7412 16.6551C22.7412 15.9 22.8085 15.4955 23.8253 15.4955H25.1847V12.6001H23.01C20.3978 12.6001 19.4784 14.0045 19.4784 16.3663V18.1044H17.8501V20.9994H19.4784V29.4001H22.7375Z" fill="black" fill-opacity="0.2"/>
<path fill-rule="evenodd" clip-rule="evenodd" d="M22.7375 29.4001V20.9991H24.9119L25.2001 18.1041H22.7375L22.7412 16.6551C22.7412 15.9 22.8085 15.4955 23.8253 15.4955H25.1847V12.6001H23.01C20.3978 12.6001 19.4784 14.0045 19.4784 16.3663V18.1044H17.8501V20.9994H19.4784V29.4001H22.7375Z" fill="black" fill-opacity="0.2"/>
<path fill-rule="evenodd" clip-rule="evenodd" d="M22.7375 29.4001V20.9991H24.9119L25.2001 18.1041H22.7375L22.7412 16.6551C22.7412 15.9 22.8085 15.4955 23.8253 15.4955H25.1847V12.6001H23.01C20.3978 12.6001 19.4784 14.0045 19.4784 16.3663V18.1044H17.8501V20.9994H19.4784V29.4001H22.7375Z" fill="black" fill-opacity="0.2"/>
<path fill-rule="evenodd" clip-rule="evenodd" d="M22.7375 29.4001V20.9991H24.9119L25.2001 18.1041H22.7375L22.7412 16.6551C22.7412 15.9 22.8085 15.4955 23.8253 15.4955H25.1847V12.6001H23.01C20.3978 12.6001 19.4784 14.0045 19.4784 16.3663V18.1044H17.8501V20.9994H19.4784V29.4001H22.7375Z" fill="black" fill-opacity="0.2"/>
<path fill-rule="evenodd" clip-rule="evenodd" d="M22.7375 29.4001V20.9991H24.9119L25.2001 18.1041H22.7375L22.7412 16.6551C22.7412 15.9 22.8085 15.4955 23.8253 15.4955H25.1847V12.6001H23.01C20.3978 12.6001 19.4784 14.0045 19.4784 16.3663V18.1044H17.8501V20.9994H19.4784V29.4001H22.7375Z" fill="black" fill-opacity="0.2"/>
</svg>
