<svg width="41" height="41" viewBox="0 0 41 41" fill="none" xmlns="http://www.w3.org/2000/svg">
<path fill-rule="evenodd" clip-rule="evenodd" d="M20.2929 17.6221L20.324 18.1541L19.8056 18.089C17.9185 17.8392 16.2699 16.9924 14.8701 15.5701L14.1858 14.8643L14.0095 15.3855C13.6363 16.5472 13.8747 17.7741 14.6524 18.5993C15.0671 19.0553 14.9738 19.1204 14.2584 18.849C14.0095 18.7621 13.7918 18.697 13.771 18.7295C13.6985 18.8055 13.9473 19.7936 14.1443 20.1844C14.4139 20.7273 14.9634 21.2593 15.5648 21.5742L16.0729 21.8239L15.4715 21.8347C14.8909 21.8347 14.8701 21.8456 14.9323 22.0736C15.1397 22.7793 15.9588 23.5285 16.8713 23.8542L17.5141 24.0822L16.9542 24.4296C16.1247 24.9291 15.1501 25.2114 14.1754 25.2331C13.7088 25.2439 13.3252 25.2874 13.3252 25.3199C13.3252 25.4285 14.5902 26.0365 15.3263 26.2754C17.5349 26.9811 20.1581 26.6771 22.1282 25.4719C23.528 24.6142 24.9277 22.9096 25.581 21.2593C25.9335 20.3799 26.286 18.773 26.286 18.0021C26.286 17.5027 26.3171 17.4375 26.8978 16.8404C27.2399 16.4929 27.5614 16.1129 27.6236 16.0043C27.7273 15.7981 27.7169 15.7981 27.1881 15.9826C26.3068 16.3084 26.1823 16.2649 26.6178 15.7763C26.9393 15.4289 27.3229 14.7992 27.3229 14.6146C27.3229 14.582 27.1674 14.6363 26.9911 14.734C26.8045 14.8426 26.3897 15.0055 26.0787 15.1032L25.5187 15.2878L25.0107 14.9295C24.7307 14.734 24.3367 14.5169 24.1293 14.4517C23.6005 14.2997 22.7918 14.3215 22.3148 14.4952C21.0187 14.9838 20.1996 16.2432 20.2929 17.6221Z" fill="#00000E"/>
<path fill-rule="evenodd" clip-rule="evenodd" d="M20.2929 17.6221L20.324 18.1541L19.8056 18.089C17.9185 17.8392 16.2699 16.9924 14.8701 15.5701L14.1858 14.8643L14.0095 15.3855C13.6363 16.5472 13.8747 17.7741 14.6524 18.5993C15.0671 19.0553 14.9738 19.1204 14.2584 18.849C14.0095 18.7621 13.7918 18.697 13.771 18.7295C13.6985 18.8055 13.9473 19.7936 14.1443 20.1844C14.4139 20.7273 14.9634 21.2593 15.5648 21.5742L16.0729 21.8239L15.4715 21.8347C14.8909 21.8347 14.8701 21.8456 14.9323 22.0736C15.1397 22.7793 15.9588 23.5285 16.8713 23.8542L17.5141 24.0822L16.9542 24.4296C16.1247 24.9291 15.1501 25.2114 14.1754 25.2331C13.7088 25.2439 13.3252 25.2874 13.3252 25.3199C13.3252 25.4285 14.5902 26.0365 15.3263 26.2754C17.5349 26.9811 20.1581 26.6771 22.1282 25.4719C23.528 24.6142 24.9277 22.9096 25.581 21.2593C25.9335 20.3799 26.286 18.773 26.286 18.0021C26.286 17.5027 26.3171 17.4375 26.8978 16.8404C27.2399 16.4929 27.5614 16.1129 27.6236 16.0043C27.7273 15.7981 27.7169 15.7981 27.1881 15.9826C26.3068 16.3084 26.1823 16.2649 26.6178 15.7763C26.9393 15.4289 27.3229 14.7992 27.3229 14.6146C27.3229 14.582 27.1674 14.6363 26.9911 14.734C26.8045 14.8426 26.3897 15.0055 26.0787 15.1032L25.5187 15.2878L25.0107 14.9295C24.7307 14.734 24.3367 14.5169 24.1293 14.4517C23.6005 14.2997 22.7918 14.3215 22.3148 14.4952C21.0187 14.9838 20.1996 16.2432 20.2929 17.6221Z" fill="black" fill-opacity="0.2"/>
<path fill-rule="evenodd" clip-rule="evenodd" d="M20.2929 17.6221L20.324 18.1541L19.8056 18.089C17.9185 17.8392 16.2699 16.9924 14.8701 15.5701L14.1858 14.8643L14.0095 15.3855C13.6363 16.5472 13.8747 17.7741 14.6524 18.5993C15.0671 19.0553 14.9738 19.1204 14.2584 18.849C14.0095 18.7621 13.7918 18.697 13.771 18.7295C13.6985 18.8055 13.9473 19.7936 14.1443 20.1844C14.4139 20.7273 14.9634 21.2593 15.5648 21.5742L16.0729 21.8239L15.4715 21.8347C14.8909 21.8347 14.8701 21.8456 14.9323 22.0736C15.1397 22.7793 15.9588 23.5285 16.8713 23.8542L17.5141 24.0822L16.9542 24.4296C16.1247 24.9291 15.1501 25.2114 14.1754 25.2331C13.7088 25.2439 13.3252 25.2874 13.3252 25.3199C13.3252 25.4285 14.5902 26.0365 15.3263 26.2754C17.5349 26.9811 20.1581 26.6771 22.1282 25.4719C23.528 24.6142 24.9277 22.9096 25.581 21.2593C25.9335 20.3799 26.286 18.773 26.286 18.0021C26.286 17.5027 26.3171 17.4375 26.8978 16.8404C27.2399 16.4929 27.5614 16.1129 27.6236 16.0043C27.7273 15.7981 27.7169 15.7981 27.1881 15.9826C26.3068 16.3084 26.1823 16.2649 26.6178 15.7763C26.9393 15.4289 27.3229 14.7992 27.3229 14.6146C27.3229 14.582 27.1674 14.6363 26.9911 14.734C26.8045 14.8426 26.3897 15.0055 26.0787 15.1032L25.5187 15.2878L25.0107 14.9295C24.7307 14.734 24.3367 14.5169 24.1293 14.4517C23.6005 14.2997 22.7918 14.3215 22.3148 14.4952C21.0187 14.9838 20.1996 16.2432 20.2929 17.6221Z" fill="black" fill-opacity="0.2"/>
<path fill-rule="evenodd" clip-rule="evenodd" d="M20.2929 17.6221L20.324 18.1541L19.8056 18.089C17.9185 17.8392 16.2699 16.9924 14.8701 15.5701L14.1858 14.8643L14.0095 15.3855C13.6363 16.5472 13.8747 17.7741 14.6524 18.5993C15.0671 19.0553 14.9738 19.1204 14.2584 18.849C14.0095 18.7621 13.7918 18.697 13.771 18.7295C13.6985 18.8055 13.9473 19.7936 14.1443 20.1844C14.4139 20.7273 14.9634 21.2593 15.5648 21.5742L16.0729 21.8239L15.4715 21.8347C14.8909 21.8347 14.8701 21.8456 14.9323 22.0736C15.1397 22.7793 15.9588 23.5285 16.8713 23.8542L17.5141 24.0822L16.9542 24.4296C16.1247 24.9291 15.1501 25.2114 14.1754 25.2331C13.7088 25.2439 13.3252 25.2874 13.3252 25.3199C13.3252 25.4285 14.5902 26.0365 15.3263 26.2754C17.5349 26.9811 20.1581 26.6771 22.1282 25.4719C23.528 24.6142 24.9277 22.9096 25.581 21.2593C25.9335 20.3799 26.286 18.773 26.286 18.0021C26.286 17.5027 26.3171 17.4375 26.8978 16.8404C27.2399 16.4929 27.5614 16.1129 27.6236 16.0043C27.7273 15.7981 27.7169 15.7981 27.1881 15.9826C26.3068 16.3084 26.1823 16.2649 26.6178 15.7763C26.9393 15.4289 27.3229 14.7992 27.3229 14.6146C27.3229 14.582 27.1674 14.6363 26.9911 14.734C26.8045 14.8426 26.3897 15.0055 26.0787 15.1032L25.5187 15.2878L25.0107 14.9295C24.7307 14.734 24.3367 14.5169 24.1293 14.4517C23.6005 14.2997 22.7918 14.3215 22.3148 14.4952C21.0187 14.9838 20.1996 16.2432 20.2929 17.6221Z" fill="black" fill-opacity="0.2"/>
<path fill-rule="evenodd" clip-rule="evenodd" d="M20.2929 17.6221L20.324 18.1541L19.8056 18.089C17.9185 17.8392 16.2699 16.9924 14.8701 15.5701L14.1858 14.8643L14.0095 15.3855C13.6363 16.5472 13.8747 17.7741 14.6524 18.5993C15.0671 19.0553 14.9738 19.1204 14.2584 18.849C14.0095 18.7621 13.7918 18.697 13.771 18.7295C13.6985 18.8055 13.9473 19.7936 14.1443 20.1844C14.4139 20.7273 14.9634 21.2593 15.5648 21.5742L16.0729 21.8239L15.4715 21.8347C14.8909 21.8347 14.8701 21.8456 14.9323 22.0736C15.1397 22.7793 15.9588 23.5285 16.8713 23.8542L17.5141 24.0822L16.9542 24.4296C16.1247 24.9291 15.1501 25.2114 14.1754 25.2331C13.7088 25.2439 13.3252 25.2874 13.3252 25.3199C13.3252 25.4285 14.5902 26.0365 15.3263 26.2754C17.5349 26.9811 20.1581 26.6771 22.1282 25.4719C23.528 24.6142 24.9277 22.9096 25.581 21.2593C25.9335 20.3799 26.286 18.773 26.286 18.0021C26.286 17.5027 26.3171 17.4375 26.8978 16.8404C27.2399 16.4929 27.5614 16.1129 27.6236 16.0043C27.7273 15.7981 27.7169 15.7981 27.1881 15.9826C26.3068 16.3084 26.1823 16.2649 26.6178 15.7763C26.9393 15.4289 27.3229 14.7992 27.3229 14.6146C27.3229 14.582 27.1674 14.6363 26.9911 14.734C26.8045 14.8426 26.3897 15.0055 26.0787 15.1032L25.5187 15.2878L25.0107 14.9295C24.7307 14.734 24.3367 14.5169 24.1293 14.4517C23.6005 14.2997 22.7918 14.3215 22.3148 14.4952C21.0187 14.9838 20.1996 16.2432 20.2929 17.6221Z" fill="black" fill-opacity="0.2"/>
<path fill-rule="evenodd" clip-rule="evenodd" d="M20.2929 17.6221L20.324 18.1541L19.8056 18.089C17.9185 17.8392 16.2699 16.9924 14.8701 15.5701L14.1858 14.8643L14.0095 15.3855C13.6363 16.5472 13.8747 17.7741 14.6524 18.5993C15.0671 19.0553 14.9738 19.1204 14.2584 18.849C14.0095 18.7621 13.7918 18.697 13.771 18.7295C13.6985 18.8055 13.9473 19.7936 14.1443 20.1844C14.4139 20.7273 14.9634 21.2593 15.5648 21.5742L16.0729 21.8239L15.4715 21.8347C14.8909 21.8347 14.8701 21.8456 14.9323 22.0736C15.1397 22.7793 15.9588 23.5285 16.8713 23.8542L17.5141 24.0822L16.9542 24.4296C16.1247 24.9291 15.1501 25.2114 14.1754 25.2331C13.7088 25.2439 13.3252 25.2874 13.3252 25.3199C13.3252 25.4285 14.5902 26.0365 15.3263 26.2754C17.5349 26.9811 20.1581 26.6771 22.1282 25.4719C23.528 24.6142 24.9277 22.9096 25.581 21.2593C25.9335 20.3799 26.286 18.773 26.286 18.0021C26.286 17.5027 26.3171 17.4375 26.8978 16.8404C27.2399 16.4929 27.5614 16.1129 27.6236 16.0043C27.7273 15.7981 27.7169 15.7981 27.1881 15.9826C26.3068 16.3084 26.1823 16.2649 26.6178 15.7763C26.9393 15.4289 27.3229 14.7992 27.3229 14.6146C27.3229 14.582 27.1674 14.6363 26.9911 14.734C26.8045 14.8426 26.3897 15.0055 26.0787 15.1032L25.5187 15.2878L25.0107 14.9295C24.7307 14.734 24.3367 14.5169 24.1293 14.4517C23.6005 14.2997 22.7918 14.3215 22.3148 14.4952C21.0187 14.9838 20.1996 16.2432 20.2929 17.6221Z" fill="black" fill-opacity="0.2"/>
<path fill-rule="evenodd" clip-rule="evenodd" d="M20.2929 17.6221L20.324 18.1541L19.8056 18.089C17.9185 17.8392 16.2699 16.9924 14.8701 15.5701L14.1858 14.8643L14.0095 15.3855C13.6363 16.5472 13.8747 17.7741 14.6524 18.5993C15.0671 19.0553 14.9738 19.1204 14.2584 18.849C14.0095 18.7621 13.7918 18.697 13.771 18.7295C13.6985 18.8055 13.9473 19.7936 14.1443 20.1844C14.4139 20.7273 14.9634 21.2593 15.5648 21.5742L16.0729 21.8239L15.4715 21.8347C14.8909 21.8347 14.8701 21.8456 14.9323 22.0736C15.1397 22.7793 15.9588 23.5285 16.8713 23.8542L17.5141 24.0822L16.9542 24.4296C16.1247 24.9291 15.1501 25.2114 14.1754 25.2331C13.7088 25.2439 13.3252 25.2874 13.3252 25.3199C13.3252 25.4285 14.5902 26.0365 15.3263 26.2754C17.5349 26.9811 20.1581 26.6771 22.1282 25.4719C23.528 24.6142 24.9277 22.9096 25.581 21.2593C25.9335 20.3799 26.286 18.773 26.286 18.0021C26.286 17.5027 26.3171 17.4375 26.8978 16.8404C27.2399 16.4929 27.5614 16.1129 27.6236 16.0043C27.7273 15.7981 27.7169 15.7981 27.1881 15.9826C26.3068 16.3084 26.1823 16.2649 26.6178 15.7763C26.9393 15.4289 27.3229 14.7992 27.3229 14.6146C27.3229 14.582 27.1674 14.6363 26.9911 14.734C26.8045 14.8426 26.3897 15.0055 26.0787 15.1032L25.5187 15.2878L25.0107 14.9295C24.7307 14.734 24.3367 14.5169 24.1293 14.4517C23.6005 14.2997 22.7918 14.3215 22.3148 14.4952C21.0187 14.9838 20.1996 16.2432 20.2929 17.6221Z" fill="black" fill-opacity="0.2"/>
</svg>
