<svg width="18" height="18" viewBox="0 0 18 18" fill="none" xmlns="http://www.w3.org/2000/svg">
<g clip-path="url(#clip0_600_9141)">
<path d="M7.71094 14.875C7.71094 15.1672 7.827 15.4473 8.03358 15.6539C8.24016 15.8605 8.52035 15.9766 8.8125 15.9766C9.10465 15.9766 9.38484 15.8605 9.59142 15.6539C9.79801 15.4473 9.91406 15.1672 9.91406 14.875V10.1016H14.6875C14.9797 10.1016 15.2598 9.98551 15.4664 9.77892C15.673 9.57234 15.7891 9.29215 15.7891 9C15.7891 8.70785 15.673 8.42766 15.4664 8.22108C15.2598 8.0145 14.9797 7.89844 14.6875 7.89844H9.91406V3.125C9.91406 2.83285 9.79801 2.55266 9.59142 2.34608C9.38484 2.13949 9.10465 2.02344 8.8125 2.02344C8.52035 2.02344 8.24016 2.13949 8.03358 2.34608C7.827 2.55266 7.71094 2.83285 7.71094 3.125V7.89844H2.9375C2.64535 7.89844 2.36516 8.0145 2.15858 8.22108C1.95199 8.42766 1.83594 8.70785 1.83594 9C1.83594 9.29215 1.95199 9.57234 2.15858 9.77892C2.36516 9.98551 2.64535 10.1016 2.9375 10.1016H7.71094V14.875Z" fill="#00000E"/>
<path d="M7.71094 14.875C7.71094 15.1672 7.827 15.4473 8.03358 15.6539C8.24016 15.8605 8.52035 15.9766 8.8125 15.9766C9.10465 15.9766 9.38484 15.8605 9.59142 15.6539C9.79801 15.4473 9.91406 15.1672 9.91406 14.875V10.1016H14.6875C14.9797 10.1016 15.2598 9.98551 15.4664 9.77892C15.673 9.57234 15.7891 9.29215 15.7891 9C15.7891 8.70785 15.673 8.42766 15.4664 8.22108C15.2598 8.0145 14.9797 7.89844 14.6875 7.89844H9.91406V3.125C9.91406 2.83285 9.79801 2.55266 9.59142 2.34608C9.38484 2.13949 9.10465 2.02344 8.8125 2.02344C8.52035 2.02344 8.24016 2.13949 8.03358 2.34608C7.827 2.55266 7.71094 2.83285 7.71094 3.125V7.89844H2.9375C2.64535 7.89844 2.36516 8.0145 2.15858 8.22108C1.95199 8.42766 1.83594 8.70785 1.83594 9C1.83594 9.29215 1.95199 9.57234 2.15858 9.77892C2.36516 9.98551 2.64535 10.1016 2.9375 10.1016H7.71094V14.875Z" fill="black" fill-opacity="0.2"/>
<path d="M7.71094 14.875C7.71094 15.1672 7.827 15.4473 8.03358 15.6539C8.24016 15.8605 8.52035 15.9766 8.8125 15.9766C9.10465 15.9766 9.38484 15.8605 9.59142 15.6539C9.79801 15.4473 9.91406 15.1672 9.91406 14.875V10.1016H14.6875C14.9797 10.1016 15.2598 9.98551 15.4664 9.77892C15.673 9.57234 15.7891 9.29215 15.7891 9C15.7891 8.70785 15.673 8.42766 15.4664 8.22108C15.2598 8.0145 14.9797 7.89844 14.6875 7.89844H9.91406V3.125C9.91406 2.83285 9.79801 2.55266 9.59142 2.34608C9.38484 2.13949 9.10465 2.02344 8.8125 2.02344C8.52035 2.02344 8.24016 2.13949 8.03358 2.34608C7.827 2.55266 7.71094 2.83285 7.71094 3.125V7.89844H2.9375C2.64535 7.89844 2.36516 8.0145 2.15858 8.22108C1.95199 8.42766 1.83594 8.70785 1.83594 9C1.83594 9.29215 1.95199 9.57234 2.15858 9.77892C2.36516 9.98551 2.64535 10.1016 2.9375 10.1016H7.71094V14.875Z" fill="black" fill-opacity="0.2"/>
<path d="M7.71094 14.875C7.71094 15.1672 7.827 15.4473 8.03358 15.6539C8.24016 15.8605 8.52035 15.9766 8.8125 15.9766C9.10465 15.9766 9.38484 15.8605 9.59142 15.6539C9.79801 15.4473 9.91406 15.1672 9.91406 14.875V10.1016H14.6875C14.9797 10.1016 15.2598 9.98551 15.4664 9.77892C15.673 9.57234 15.7891 9.29215 15.7891 9C15.7891 8.70785 15.673 8.42766 15.4664 8.22108C15.2598 8.0145 14.9797 7.89844 14.6875 7.89844H9.91406V3.125C9.91406 2.83285 9.79801 2.55266 9.59142 2.34608C9.38484 2.13949 9.10465 2.02344 8.8125 2.02344C8.52035 2.02344 8.24016 2.13949 8.03358 2.34608C7.827 2.55266 7.71094 2.83285 7.71094 3.125V7.89844H2.9375C2.64535 7.89844 2.36516 8.0145 2.15858 8.22108C1.95199 8.42766 1.83594 8.70785 1.83594 9C1.83594 9.29215 1.95199 9.57234 2.15858 9.77892C2.36516 9.98551 2.64535 10.1016 2.9375 10.1016H7.71094V14.875Z" fill="black" fill-opacity="0.2"/>
<path d="M7.71094 14.875C7.71094 15.1672 7.827 15.4473 8.03358 15.6539C8.24016 15.8605 8.52035 15.9766 8.8125 15.9766C9.10465 15.9766 9.38484 15.8605 9.59142 15.6539C9.79801 15.4473 9.91406 15.1672 9.91406 14.875V10.1016H14.6875C14.9797 10.1016 15.2598 9.98551 15.4664 9.77892C15.673 9.57234 15.7891 9.29215 15.7891 9C15.7891 8.70785 15.673 8.42766 15.4664 8.22108C15.2598 8.0145 14.9797 7.89844 14.6875 7.89844H9.91406V3.125C9.91406 2.83285 9.79801 2.55266 9.59142 2.34608C9.38484 2.13949 9.10465 2.02344 8.8125 2.02344C8.52035 2.02344 8.24016 2.13949 8.03358 2.34608C7.827 2.55266 7.71094 2.83285 7.71094 3.125V7.89844H2.9375C2.64535 7.89844 2.36516 8.0145 2.15858 8.22108C1.95199 8.42766 1.83594 8.70785 1.83594 9C1.83594 9.29215 1.95199 9.57234 2.15858 9.77892C2.36516 9.98551 2.64535 10.1016 2.9375 10.1016H7.71094V14.875Z" fill="black" fill-opacity="0.2"/>
<path d="M7.71094 14.875C7.71094 15.1672 7.827 15.4473 8.03358 15.6539C8.24016 15.8605 8.52035 15.9766 8.8125 15.9766C9.10465 15.9766 9.38484 15.8605 9.59142 15.6539C9.79801 15.4473 9.91406 15.1672 9.91406 14.875V10.1016H14.6875C14.9797 10.1016 15.2598 9.98551 15.4664 9.77892C15.673 9.57234 15.7891 9.29215 15.7891 9C15.7891 8.70785 15.673 8.42766 15.4664 8.22108C15.2598 8.0145 14.9797 7.89844 14.6875 7.89844H9.91406V3.125C9.91406 2.83285 9.79801 2.55266 9.59142 2.34608C9.38484 2.13949 9.10465 2.02344 8.8125 2.02344C8.52035 2.02344 8.24016 2.13949 8.03358 2.34608C7.827 2.55266 7.71094 2.83285 7.71094 3.125V7.89844H2.9375C2.64535 7.89844 2.36516 8.0145 2.15858 8.22108C1.95199 8.42766 1.83594 8.70785 1.83594 9C1.83594 9.29215 1.95199 9.57234 2.15858 9.77892C2.36516 9.98551 2.64535 10.1016 2.9375 10.1016H7.71094V14.875Z" fill="black" fill-opacity="0.2"/>
<path d="M7.71094 14.875C7.71094 15.1672 7.827 15.4473 8.03358 15.6539C8.24016 15.8605 8.52035 15.9766 8.8125 15.9766C9.10465 15.9766 9.38484 15.8605 9.59142 15.6539C9.79801 15.4473 9.91406 15.1672 9.91406 14.875V10.1016H14.6875C14.9797 10.1016 15.2598 9.98551 15.4664 9.77892C15.673 9.57234 15.7891 9.29215 15.7891 9C15.7891 8.70785 15.673 8.42766 15.4664 8.22108C15.2598 8.0145 14.9797 7.89844 14.6875 7.89844H9.91406V3.125C9.91406 2.83285 9.79801 2.55266 9.59142 2.34608C9.38484 2.13949 9.10465 2.02344 8.8125 2.02344C8.52035 2.02344 8.24016 2.13949 8.03358 2.34608C7.827 2.55266 7.71094 2.83285 7.71094 3.125V7.89844H2.9375C2.64535 7.89844 2.36516 8.0145 2.15858 8.22108C1.95199 8.42766 1.83594 8.70785 1.83594 9C1.83594 9.29215 1.95199 9.57234 2.15858 9.77892C2.36516 9.98551 2.64535 10.1016 2.9375 10.1016H7.71094V14.875Z" fill="black" fill-opacity="0.2"/>
</g>
<defs>
<clipPath id="clip0_600_9141">
<rect width="17.625" height="17.625" fill="white" transform="translate(0 0.1875)"/>
</clipPath>
</defs>
</svg>
