<svg width="17" height="16" viewBox="0 0 17 16" fill="none" xmlns="http://www.w3.org/2000/svg">
<path d="M5.38767 15.2407C4.25163 15.9262 2.85039 14.9076 3.15196 13.6154L3.79154 10.875C3.9181 10.3328 3.73385 9.76501 3.313 9.40039L1.18057 7.55295C0.17864 6.68491 0.712724 5.03912 2.03344 4.92482L4.84243 4.68173C5.39553 4.63387 5.87695 4.28443 6.09387 3.7734L7.19671 1.17522C7.71392 -0.0432849 9.44089 -0.0433459 9.95819 1.17512L11.0608 3.77218C11.2777 4.28315 11.7591 4.63254 12.3121 4.68041L15.1206 4.92349C16.4412 5.0378 16.9753 6.6834 15.9736 7.55149L13.8415 9.39906C13.4207 9.76368 13.2366 10.3314 13.3631 10.8736L14.0029 13.6149C14.3044 14.9069 12.9034 15.9255 11.7674 15.2402L9.35224 13.7834C8.87565 13.4959 8.27905 13.4959 7.8025 13.7835L5.38767 15.2407Z" fill="#666791"/>
</svg>
