<svg width="192" height="40" viewBox="0 0 192 40" fill="none" xmlns="http://www.w3.org/2000/svg">
<rect x="0.686499" y="0.686499" width="190.691" height="38.151" rx="1.5675" stroke="white" stroke-width="0.627001"/>
<rect x="3.50781" y="3.50781" width="89.524" height="32.508" rx="2.50801" fill="white"/>
<path d="M24.0812 10.5217V28.7617H22.4603L11.6837 13.4875H11.5412V28.7617H9.87571V10.5217H11.4877L22.3 25.8137H22.4425V10.5217H24.0812ZM43.8843 19.6417C43.8843 21.5417 43.5459 23.1953 42.869 24.6025C42.1921 26.0037 41.2599 27.0903 40.0724 27.8622C38.8909 28.6281 37.5312 29.0111 35.9933 29.0111C34.4555 29.0111 33.0929 28.6281 31.9054 27.8622C30.7238 27.0903 29.7946 26.0037 29.1177 24.6025C28.4468 23.1953 28.1113 21.5417 28.1113 19.6417C28.1113 17.7417 28.4468 16.0911 29.1177 14.6898C29.7946 13.2826 30.7268 12.1961 31.9143 11.4301C33.1018 10.6582 34.4615 10.2723 35.9933 10.2723C37.5312 10.2723 38.8909 10.6582 40.0724 11.4301C41.2599 12.1961 42.1921 13.2826 42.869 14.6898C43.5459 16.0911 43.8843 17.7417 43.8843 19.6417ZM42.2634 19.6417C42.2634 18.0089 41.9902 16.6106 41.444 15.4468C40.8977 14.2772 40.1526 13.3836 39.2085 12.7661C38.2644 12.1486 37.1927 11.8398 35.9933 11.8398C34.7999 11.8398 33.7312 12.1486 32.7871 12.7661C31.843 13.3836 31.0949 14.2742 30.5427 15.4379C29.9965 16.6017 29.7233 18.0029 29.7233 19.6417C29.7233 21.2745 29.9965 22.6728 30.5427 23.8366C31.089 25.0003 31.8341 25.8939 32.7782 26.5173C33.7223 27.1348 34.794 27.4436 35.9933 27.4436C37.1927 27.4436 38.2644 27.1348 39.2085 26.5173C40.1585 25.8998 40.9066 25.0092 41.4529 23.8455C41.9991 22.6758 42.2693 21.2745 42.2634 19.6417ZM47.9122 28.7617V10.5217H49.5776V27.2655H58.2702V28.7617H47.9122ZM62.0197 28.7617V10.5217H63.6852V27.2655H72.3777V28.7617H62.0197ZM73.56 10.5217H75.4838L80.8899 19.1786H81.0502L86.4563 10.5217H88.38L81.7983 20.8619V28.7617H80.1417V20.8619L73.56 10.5217Z" fill="#00000E"/>
<path d="M24.0812 10.5217V28.7617H22.4603L11.6837 13.4875H11.5412V28.7617H9.87571V10.5217H11.4877L22.3 25.8137H22.4425V10.5217H24.0812ZM43.8843 19.6417C43.8843 21.5417 43.5459 23.1953 42.869 24.6025C42.1921 26.0037 41.2599 27.0903 40.0724 27.8622C38.8909 28.6281 37.5312 29.0111 35.9933 29.0111C34.4555 29.0111 33.0929 28.6281 31.9054 27.8622C30.7238 27.0903 29.7946 26.0037 29.1177 24.6025C28.4468 23.1953 28.1113 21.5417 28.1113 19.6417C28.1113 17.7417 28.4468 16.0911 29.1177 14.6898C29.7946 13.2826 30.7268 12.1961 31.9143 11.4301C33.1018 10.6582 34.4615 10.2723 35.9933 10.2723C37.5312 10.2723 38.8909 10.6582 40.0724 11.4301C41.2599 12.1961 42.1921 13.2826 42.869 14.6898C43.5459 16.0911 43.8843 17.7417 43.8843 19.6417ZM42.2634 19.6417C42.2634 18.0089 41.9902 16.6106 41.444 15.4468C40.8977 14.2772 40.1526 13.3836 39.2085 12.7661C38.2644 12.1486 37.1927 11.8398 35.9933 11.8398C34.7999 11.8398 33.7312 12.1486 32.7871 12.7661C31.843 13.3836 31.0949 14.2742 30.5427 15.4379C29.9965 16.6017 29.7233 18.0029 29.7233 19.6417C29.7233 21.2745 29.9965 22.6728 30.5427 23.8366C31.089 25.0003 31.8341 25.8939 32.7782 26.5173C33.7223 27.1348 34.794 27.4436 35.9933 27.4436C37.1927 27.4436 38.2644 27.1348 39.2085 26.5173C40.1585 25.8998 40.9066 25.0092 41.4529 23.8455C41.9991 22.6758 42.2693 21.2745 42.2634 19.6417ZM47.9122 28.7617V10.5217H49.5776V27.2655H58.2702V28.7617H47.9122ZM62.0197 28.7617V10.5217H63.6852V27.2655H72.3777V28.7617H62.0197ZM73.56 10.5217H75.4838L80.8899 19.1786H81.0502L86.4563 10.5217H88.38L81.7983 20.8619V28.7617H80.1417V20.8619L73.56 10.5217Z" fill="black" fill-opacity="0.2"/>
<path d="M24.0812 10.5217V28.7617H22.4603L11.6837 13.4875H11.5412V28.7617H9.87571V10.5217H11.4877L22.3 25.8137H22.4425V10.5217H24.0812ZM43.8843 19.6417C43.8843 21.5417 43.5459 23.1953 42.869 24.6025C42.1921 26.0037 41.2599 27.0903 40.0724 27.8622C38.8909 28.6281 37.5312 29.0111 35.9933 29.0111C34.4555 29.0111 33.0929 28.6281 31.9054 27.8622C30.7238 27.0903 29.7946 26.0037 29.1177 24.6025C28.4468 23.1953 28.1113 21.5417 28.1113 19.6417C28.1113 17.7417 28.4468 16.0911 29.1177 14.6898C29.7946 13.2826 30.7268 12.1961 31.9143 11.4301C33.1018 10.6582 34.4615 10.2723 35.9933 10.2723C37.5312 10.2723 38.8909 10.6582 40.0724 11.4301C41.2599 12.1961 42.1921 13.2826 42.869 14.6898C43.5459 16.0911 43.8843 17.7417 43.8843 19.6417ZM42.2634 19.6417C42.2634 18.0089 41.9902 16.6106 41.444 15.4468C40.8977 14.2772 40.1526 13.3836 39.2085 12.7661C38.2644 12.1486 37.1927 11.8398 35.9933 11.8398C34.7999 11.8398 33.7312 12.1486 32.7871 12.7661C31.843 13.3836 31.0949 14.2742 30.5427 15.4379C29.9965 16.6017 29.7233 18.0029 29.7233 19.6417C29.7233 21.2745 29.9965 22.6728 30.5427 23.8366C31.089 25.0003 31.8341 25.8939 32.7782 26.5173C33.7223 27.1348 34.794 27.4436 35.9933 27.4436C37.1927 27.4436 38.2644 27.1348 39.2085 26.5173C40.1585 25.8998 40.9066 25.0092 41.4529 23.8455C41.9991 22.6758 42.2693 21.2745 42.2634 19.6417ZM47.9122 28.7617V10.5217H49.5776V27.2655H58.2702V28.7617H47.9122ZM62.0197 28.7617V10.5217H63.6852V27.2655H72.3777V28.7617H62.0197ZM73.56 10.5217H75.4838L80.8899 19.1786H81.0502L86.4563 10.5217H88.38L81.7983 20.8619V28.7617H80.1417V20.8619L73.56 10.5217Z" fill="black" fill-opacity="0.2"/>
<path d="M24.0812 10.5217V28.7617H22.4603L11.6837 13.4875H11.5412V28.7617H9.87571V10.5217H11.4877L22.3 25.8137H22.4425V10.5217H24.0812ZM43.8843 19.6417C43.8843 21.5417 43.5459 23.1953 42.869 24.6025C42.1921 26.0037 41.2599 27.0903 40.0724 27.8622C38.8909 28.6281 37.5312 29.0111 35.9933 29.0111C34.4555 29.0111 33.0929 28.6281 31.9054 27.8622C30.7238 27.0903 29.7946 26.0037 29.1177 24.6025C28.4468 23.1953 28.1113 21.5417 28.1113 19.6417C28.1113 17.7417 28.4468 16.0911 29.1177 14.6898C29.7946 13.2826 30.7268 12.1961 31.9143 11.4301C33.1018 10.6582 34.4615 10.2723 35.9933 10.2723C37.5312 10.2723 38.8909 10.6582 40.0724 11.4301C41.2599 12.1961 42.1921 13.2826 42.869 14.6898C43.5459 16.0911 43.8843 17.7417 43.8843 19.6417ZM42.2634 19.6417C42.2634 18.0089 41.9902 16.6106 41.444 15.4468C40.8977 14.2772 40.1526 13.3836 39.2085 12.7661C38.2644 12.1486 37.1927 11.8398 35.9933 11.8398C34.7999 11.8398 33.7312 12.1486 32.7871 12.7661C31.843 13.3836 31.0949 14.2742 30.5427 15.4379C29.9965 16.6017 29.7233 18.0029 29.7233 19.6417C29.7233 21.2745 29.9965 22.6728 30.5427 23.8366C31.089 25.0003 31.8341 25.8939 32.7782 26.5173C33.7223 27.1348 34.794 27.4436 35.9933 27.4436C37.1927 27.4436 38.2644 27.1348 39.2085 26.5173C40.1585 25.8998 40.9066 25.0092 41.4529 23.8455C41.9991 22.6758 42.2693 21.2745 42.2634 19.6417ZM47.9122 28.7617V10.5217H49.5776V27.2655H58.2702V28.7617H47.9122ZM62.0197 28.7617V10.5217H63.6852V27.2655H72.3777V28.7617H62.0197ZM73.56 10.5217H75.4838L80.8899 19.1786H81.0502L86.4563 10.5217H88.38L81.7983 20.8619V28.7617H80.1417V20.8619L73.56 10.5217Z" fill="black" fill-opacity="0.2"/>
<path d="M24.0812 10.5217V28.7617H22.4603L11.6837 13.4875H11.5412V28.7617H9.87571V10.5217H11.4877L22.3 25.8137H22.4425V10.5217H24.0812ZM43.8843 19.6417C43.8843 21.5417 43.5459 23.1953 42.869 24.6025C42.1921 26.0037 41.2599 27.0903 40.0724 27.8622C38.8909 28.6281 37.5312 29.0111 35.9933 29.0111C34.4555 29.0111 33.0929 28.6281 31.9054 27.8622C30.7238 27.0903 29.7946 26.0037 29.1177 24.6025C28.4468 23.1953 28.1113 21.5417 28.1113 19.6417C28.1113 17.7417 28.4468 16.0911 29.1177 14.6898C29.7946 13.2826 30.7268 12.1961 31.9143 11.4301C33.1018 10.6582 34.4615 10.2723 35.9933 10.2723C37.5312 10.2723 38.8909 10.6582 40.0724 11.4301C41.2599 12.1961 42.1921 13.2826 42.869 14.6898C43.5459 16.0911 43.8843 17.7417 43.8843 19.6417ZM42.2634 19.6417C42.2634 18.0089 41.9902 16.6106 41.444 15.4468C40.8977 14.2772 40.1526 13.3836 39.2085 12.7661C38.2644 12.1486 37.1927 11.8398 35.9933 11.8398C34.7999 11.8398 33.7312 12.1486 32.7871 12.7661C31.843 13.3836 31.0949 14.2742 30.5427 15.4379C29.9965 16.6017 29.7233 18.0029 29.7233 19.6417C29.7233 21.2745 29.9965 22.6728 30.5427 23.8366C31.089 25.0003 31.8341 25.8939 32.7782 26.5173C33.7223 27.1348 34.794 27.4436 35.9933 27.4436C37.1927 27.4436 38.2644 27.1348 39.2085 26.5173C40.1585 25.8998 40.9066 25.0092 41.4529 23.8455C41.9991 22.6758 42.2693 21.2745 42.2634 19.6417ZM47.9122 28.7617V10.5217H49.5776V27.2655H58.2702V28.7617H47.9122ZM62.0197 28.7617V10.5217H63.6852V27.2655H72.3777V28.7617H62.0197ZM73.56 10.5217H75.4838L80.8899 19.1786H81.0502L86.4563 10.5217H88.38L81.7983 20.8619V28.7617H80.1417V20.8619L73.56 10.5217Z" fill="black" fill-opacity="0.2"/>
<path d="M24.0812 10.5217V28.7617H22.4603L11.6837 13.4875H11.5412V28.7617H9.87571V10.5217H11.4877L22.3 25.8137H22.4425V10.5217H24.0812ZM43.8843 19.6417C43.8843 21.5417 43.5459 23.1953 42.869 24.6025C42.1921 26.0037 41.2599 27.0903 40.0724 27.8622C38.8909 28.6281 37.5312 29.0111 35.9933 29.0111C34.4555 29.0111 33.0929 28.6281 31.9054 27.8622C30.7238 27.0903 29.7946 26.0037 29.1177 24.6025C28.4468 23.1953 28.1113 21.5417 28.1113 19.6417C28.1113 17.7417 28.4468 16.0911 29.1177 14.6898C29.7946 13.2826 30.7268 12.1961 31.9143 11.4301C33.1018 10.6582 34.4615 10.2723 35.9933 10.2723C37.5312 10.2723 38.8909 10.6582 40.0724 11.4301C41.2599 12.1961 42.1921 13.2826 42.869 14.6898C43.5459 16.0911 43.8843 17.7417 43.8843 19.6417ZM42.2634 19.6417C42.2634 18.0089 41.9902 16.6106 41.444 15.4468C40.8977 14.2772 40.1526 13.3836 39.2085 12.7661C38.2644 12.1486 37.1927 11.8398 35.9933 11.8398C34.7999 11.8398 33.7312 12.1486 32.7871 12.7661C31.843 13.3836 31.0949 14.2742 30.5427 15.4379C29.9965 16.6017 29.7233 18.0029 29.7233 19.6417C29.7233 21.2745 29.9965 22.6728 30.5427 23.8366C31.089 25.0003 31.8341 25.8939 32.7782 26.5173C33.7223 27.1348 34.794 27.4436 35.9933 27.4436C37.1927 27.4436 38.2644 27.1348 39.2085 26.5173C40.1585 25.8998 40.9066 25.0092 41.4529 23.8455C41.9991 22.6758 42.2693 21.2745 42.2634 19.6417ZM47.9122 28.7617V10.5217H49.5776V27.2655H58.2702V28.7617H47.9122ZM62.0197 28.7617V10.5217H63.6852V27.2655H72.3777V28.7617H62.0197ZM73.56 10.5217H75.4838L80.8899 19.1786H81.0502L86.4563 10.5217H88.38L81.7983 20.8619V28.7617H80.1417V20.8619L73.56 10.5217Z" fill="black" fill-opacity="0.2"/>
<path d="M24.0812 10.5217V28.7617H22.4603L11.6837 13.4875H11.5412V28.7617H9.87571V10.5217H11.4877L22.3 25.8137H22.4425V10.5217H24.0812ZM43.8843 19.6417C43.8843 21.5417 43.5459 23.1953 42.869 24.6025C42.1921 26.0037 41.2599 27.0903 40.0724 27.8622C38.8909 28.6281 37.5312 29.0111 35.9933 29.0111C34.4555 29.0111 33.0929 28.6281 31.9054 27.8622C30.7238 27.0903 29.7946 26.0037 29.1177 24.6025C28.4468 23.1953 28.1113 21.5417 28.1113 19.6417C28.1113 17.7417 28.4468 16.0911 29.1177 14.6898C29.7946 13.2826 30.7268 12.1961 31.9143 11.4301C33.1018 10.6582 34.4615 10.2723 35.9933 10.2723C37.5312 10.2723 38.8909 10.6582 40.0724 11.4301C41.2599 12.1961 42.1921 13.2826 42.869 14.6898C43.5459 16.0911 43.8843 17.7417 43.8843 19.6417ZM42.2634 19.6417C42.2634 18.0089 41.9902 16.6106 41.444 15.4468C40.8977 14.2772 40.1526 13.3836 39.2085 12.7661C38.2644 12.1486 37.1927 11.8398 35.9933 11.8398C34.7999 11.8398 33.7312 12.1486 32.7871 12.7661C31.843 13.3836 31.0949 14.2742 30.5427 15.4379C29.9965 16.6017 29.7233 18.0029 29.7233 19.6417C29.7233 21.2745 29.9965 22.6728 30.5427 23.8366C31.089 25.0003 31.8341 25.8939 32.7782 26.5173C33.7223 27.1348 34.794 27.4436 35.9933 27.4436C37.1927 27.4436 38.2644 27.1348 39.2085 26.5173C40.1585 25.8998 40.9066 25.0092 41.4529 23.8455C41.9991 22.6758 42.2693 21.2745 42.2634 19.6417ZM47.9122 28.7617V10.5217H49.5776V27.2655H58.2702V28.7617H47.9122ZM62.0197 28.7617V10.5217H63.6852V27.2655H72.3777V28.7617H62.0197ZM73.56 10.5217H75.4838L80.8899 19.1786H81.0502L86.4563 10.5217H88.38L81.7983 20.8619V28.7617H80.1417V20.8619L73.56 10.5217Z" fill="black" fill-opacity="0.2"/>
<path d="M108.034 15.9906C107.975 15.3375 107.711 14.8298 107.241 14.4676C106.778 14.0995 106.116 13.9155 105.255 13.9155C104.685 13.9155 104.21 13.9897 103.83 14.1381C103.45 14.2865 103.165 14.4914 102.975 14.7526C102.785 15.008 102.687 15.3019 102.681 15.6344C102.67 15.9075 102.723 16.148 102.842 16.3558C102.966 16.5636 103.145 16.7476 103.376 16.908C103.614 17.0623 103.899 17.1989 104.231 17.3176C104.564 17.4364 104.938 17.5403 105.353 17.6294L106.921 17.9856C107.823 18.1816 108.619 18.4428 109.308 18.7694C110.002 19.0959 110.584 19.4848 111.053 19.9361C111.528 20.3873 111.888 20.9069 112.131 21.4947C112.374 22.0825 112.499 22.7416 112.505 23.4719C112.499 24.6238 112.208 25.6124 111.632 26.4377C111.056 27.263 110.228 27.8953 109.147 28.3347C108.073 28.7741 106.775 28.9938 105.255 28.9938C103.729 28.9938 102.399 28.7652 101.265 28.308C100.131 27.8508 99.2496 27.1561 98.6202 26.2239C97.9908 25.2917 97.6672 24.1131 97.6494 22.6881H101.871C101.907 23.2759 102.064 23.7658 102.343 24.1577C102.622 24.5495 103.005 24.8464 103.492 25.0483C103.985 25.2502 104.555 25.3511 105.202 25.3511C105.796 25.3511 106.3 25.2709 106.716 25.1106C107.138 24.9503 107.461 24.7277 107.687 24.4427C107.912 24.1577 108.028 23.8311 108.034 23.463C108.028 23.1186 107.921 22.8247 107.714 22.5813C107.506 22.3319 107.185 22.1181 106.752 21.94C106.324 21.7559 105.778 21.5867 105.113 21.4323L103.207 20.987C101.628 20.6248 100.384 20.04 99.4752 19.2325C98.5668 18.4191 98.1155 17.3206 98.1215 15.9372C98.1155 14.809 98.4183 13.8205 99.0299 12.9714C99.6415 12.1223 100.488 11.4603 101.568 10.9853C102.649 10.5103 103.881 10.2728 105.264 10.2728C106.677 10.2728 107.904 10.5133 108.943 10.9942C109.988 11.4692 110.798 12.1372 111.374 12.9981C111.95 13.859 112.244 14.8565 112.256 15.9906H108.034ZM131.288 17.1306H126.835C126.776 16.6734 126.654 16.2608 126.47 15.8926C126.286 15.5245 126.043 15.2098 125.74 14.9486C125.437 14.6873 125.078 14.4884 124.662 14.3519C124.252 14.2094 123.798 14.1381 123.299 14.1381C122.415 14.1381 121.652 14.3548 121.011 14.7883C120.375 15.2217 119.885 15.8481 119.541 16.6675C119.203 17.4869 119.033 18.4784 119.033 19.6422C119.033 20.8534 119.206 21.8688 119.55 22.6881C119.9 23.5016 120.39 24.1161 121.019 24.5317C121.655 24.9414 122.406 25.1463 123.273 25.1463C123.76 25.1463 124.202 25.0839 124.6 24.9592C125.004 24.8345 125.357 24.6534 125.66 24.4159C125.968 24.1725 126.221 23.8786 126.417 23.5342C126.619 23.1839 126.758 22.7891 126.835 22.3497L131.288 22.3764C131.211 23.1839 130.977 23.9795 130.585 24.7633C130.199 25.547 129.667 26.2625 128.991 26.9097C128.314 27.551 127.488 28.0616 126.515 28.4416C125.547 28.8216 124.437 29.0116 123.184 29.0116C121.533 29.0116 120.055 28.6494 118.748 27.925C117.448 27.1947 116.421 26.1319 115.667 24.7366C114.913 23.3413 114.536 21.6431 114.536 19.6422C114.536 17.6353 114.919 15.9342 115.685 14.5389C116.451 13.1436 117.487 12.0837 118.793 11.3594C120.099 10.635 121.563 10.2728 123.184 10.2728C124.288 10.2728 125.309 10.4272 126.247 10.7359C127.186 11.0387 128.011 11.484 128.723 12.0719C129.436 12.6537 130.015 13.3692 130.46 14.2183C130.905 15.0673 131.182 16.0381 131.288 17.1306ZM151.027 19.6422C151.027 21.6491 150.641 23.3502 149.869 24.7455C149.097 26.1408 148.052 27.2006 146.734 27.925C145.422 28.6494 143.949 29.0116 142.317 29.0116C140.678 29.0116 139.202 28.6464 137.89 27.9161C136.578 27.1858 135.536 26.126 134.764 24.7366C133.998 23.3413 133.615 21.6431 133.615 19.6422C133.615 17.6353 133.998 15.9342 134.764 14.5389C135.536 13.1436 136.578 12.0837 137.89 11.3594C139.202 10.635 140.678 10.2728 142.317 10.2728C143.949 10.2728 145.422 10.635 146.734 11.3594C148.052 12.0837 149.097 13.1436 149.869 14.5389C150.641 15.9342 151.027 17.6353 151.027 19.6422ZM146.52 19.6422C146.52 18.4547 146.351 17.4512 146.013 16.6319C145.68 15.8125 145.199 15.192 144.57 14.7705C143.946 14.3489 143.195 14.1381 142.317 14.1381C141.444 14.1381 140.693 14.3489 140.063 14.7705C139.434 15.192 138.95 15.8125 138.612 16.6319C138.279 17.4512 138.113 18.4547 138.113 19.6422C138.113 20.8297 138.279 21.8331 138.612 22.6525C138.95 23.4719 139.434 24.0924 140.063 24.5139C140.693 24.9355 141.444 25.1463 142.317 25.1463C143.195 25.1463 143.946 24.9355 144.57 24.5139C145.199 24.0924 145.68 23.4719 146.013 22.6525C146.351 21.8331 146.52 20.8297 146.52 19.6422ZM153.601 28.7622V10.5222H161.136C162.501 10.5222 163.68 10.7686 164.671 11.2614C165.669 11.7483 166.438 12.4489 166.978 13.3633C167.518 14.2717 167.789 15.3494 167.789 16.5962C167.789 17.8609 167.512 18.9356 166.96 19.8203C166.408 20.6991 165.624 21.37 164.609 21.8331C163.594 22.2903 162.391 22.5189 161.002 22.5189H156.237V19.0455H160.183C160.848 19.0455 161.403 18.9594 161.848 18.7872C162.299 18.6091 162.641 18.3419 162.872 17.9856C163.104 17.6234 163.22 17.1603 163.22 16.5962C163.22 16.0322 163.104 15.5661 162.872 15.198C162.641 14.8239 162.299 14.5448 161.848 14.3608C161.397 14.1708 160.842 14.0758 160.183 14.0758H158.009V28.7622H153.601ZM163.87 20.4259L168.412 28.7622H163.603L159.149 20.4259H163.87ZM170.207 28.7622V10.5222H182.925V14.1025H174.615V17.8431H182.275V21.4323H174.615V25.1819H182.925V28.7622H170.207Z" fill="white"/>
</svg>
