<svg width="16" height="16" viewBox="0 0 16 16" fill="none" xmlns="http://www.w3.org/2000/svg">
<path fill-rule="evenodd" clip-rule="evenodd" d="M15 7.99999C15 7.35312 14.6687 6.70624 14.0056 6.34561L5.99813 1.99062C4.70875 1.28999 3.125 2.20249 3.125 3.64562V7.99999H15Z" fill="#00000E"/>
<path fill-rule="evenodd" clip-rule="evenodd" d="M15 7.99999C15 7.35312 14.6687 6.70624 14.0056 6.34561L5.99813 1.99062C4.70875 1.28999 3.125 2.20249 3.125 3.64562V7.99999H15Z" fill="black" fill-opacity="0.2"/>
<path fill-rule="evenodd" clip-rule="evenodd" d="M15 7.99999C15 7.35312 14.6687 6.70624 14.0056 6.34561L5.99813 1.99062C4.70875 1.28999 3.125 2.20249 3.125 3.64562V7.99999H15Z" fill="black" fill-opacity="0.2"/>
<path fill-rule="evenodd" clip-rule="evenodd" d="M15 7.99999C15 7.35312 14.6687 6.70624 14.0056 6.34561L5.99813 1.99062C4.70875 1.28999 3.125 2.20249 3.125 3.64562V7.99999H15Z" fill="black" fill-opacity="0.2"/>
<path fill-rule="evenodd" clip-rule="evenodd" d="M15 7.99999C15 7.35312 14.6687 6.70624 14.0056 6.34561L5.99813 1.99062C4.70875 1.28999 3.125 2.20249 3.125 3.64562V7.99999H15Z" fill="black" fill-opacity="0.2"/>
<path fill-rule="evenodd" clip-rule="evenodd" d="M15 7.99999C15 7.35312 14.6687 6.70624 14.0056 6.34561L5.99813 1.99062C4.70875 1.28999 3.125 2.20249 3.125 3.64562V7.99999H15Z" fill="black" fill-opacity="0.2"/>
<path fill-rule="evenodd" clip-rule="evenodd" d="M15 7.99999C15 7.35312 14.6687 6.70624 14.0056 6.34561L5.99813 1.99062C4.70875 1.28999 3.125 2.20249 3.125 3.64562V7.99999H15Z" fill="black" fill-opacity="0.2"/>
<path opacity="0.5" d="M5.99813 14.0087L14.0056 9.65438C14.3063 9.49533 14.5579 9.25718 14.7331 8.96562C14.9084 8.67406 15.0006 8.34017 15 8H3.125V12.3544C3.125 13.7981 4.70875 14.7094 5.99813 14.0087Z" fill="#33346D"/>
</svg>
