<svg width="13" height="13" viewBox="0 0 13 13" fill="none" xmlns="http://www.w3.org/2000/svg">
<path d="M3.5484 12.7086C2.79686 13.1858 1.84337 12.5169 2.03615 11.6478L2.61952 9.01796C2.69711 8.66822 2.58167 8.30369 2.31691 8.06236L0.330832 6.25199C-0.311826 5.66619 0.047814 4.59592 0.913813 4.51706L3.43479 4.28752C3.8082 4.25352 4.13121 4.0135 4.27149 3.66578L5.22653 1.29848C5.56318 0.464024 6.74455 0.463984 7.08126 1.29842L8.03612 3.6648C8.17642 4.01248 8.4994 4.25248 8.87278 4.28648L11.3932 4.51602C12.2592 4.59488 12.6188 5.66503 11.9763 6.25086L9.99061 8.06132C9.72592 8.30265 9.61052 8.66714 9.68809 9.01684L10.2716 11.6473C10.4644 12.5163 9.51103 13.1852 8.75948 12.7082L6.68976 11.3946C6.36264 11.187 5.94502 11.1871 5.61793 11.3947L3.5484 12.7086Z" fill="#DC03FF"/>
</svg>
