<svg width="37" height="17" viewBox="0 0 37 17" fill="none" xmlns="http://www.w3.org/2000/svg">
<path fill-rule="evenodd" clip-rule="evenodd" d="M7.00758 0C3.1374 0 0 3.17132 0 7.08333V9.91667C0 13.8287 3.13739 17 7.00757 17H29.9924C33.8626 17 37 13.8287 37 9.91667V7.08333C37 3.17132 33.8626 0 29.9924 0H7.00758ZM8.40909 11.9C10.2668 11.9 11.7727 10.3778 11.7727 8.5C11.7727 6.62223 10.2668 5.1 8.40909 5.1C6.55141 5.1 5.04545 6.62223 5.04545 8.5C5.04545 10.3778 6.55141 11.9 8.40909 11.9ZM21.8636 8.5C21.8636 10.3778 20.3577 11.9 18.5 11.9C16.6423 11.9 15.1364 10.3778 15.1364 8.5C15.1364 6.62223 16.6423 5.1 18.5 5.1C20.3577 5.1 21.8636 6.62223 21.8636 8.5ZM28.5909 11.9C30.4486 11.9 31.9545 10.3778 31.9545 8.5C31.9545 6.62223 30.4486 5.1 28.5909 5.1C26.7332 5.1 25.2273 6.62223 25.2273 8.5C25.2273 10.3778 26.7332 11.9 28.5909 11.9Z" fill="white"/>
</svg>
