<svg width="42" height="42" viewBox="0 0 42 42" fill="none" xmlns="http://www.w3.org/2000/svg">
<circle cx="20.8674" cy="20.8674" r="17.2431" transform="rotate(-76.1591 20.8674 20.8674)" fill="#00001D"/>
<path d="M25.1719 3.3968C22.4881 2.73558 19.6881 2.70153 16.9891 3.29729C14.2901 3.89306 11.7646 5.10262 9.60859 6.83214C7.45256 8.56166 5.72398 10.7646 4.55692 13.2702C3.38987 15.7757 2.81574 18.5164 2.87906 21.2797" stroke="#ADFF00" stroke-opacity="0.38" stroke-width="1.5"/>
<path d="M2.87597 20.6252C2.8304 24.009 3.74002 27.337 5.50038 30.2272C7.26075 33.1174 9.8005 35.4526 12.828 36.9646C15.8556 38.4767 19.2481 39.1043 22.6162 38.7754C25.9843 38.4465 29.1913 37.1744 31.8692 35.1052C34.547 33.036 36.587 30.2536 37.7549 27.0775C38.9229 23.9013 39.1715 20.4601 38.4721 17.1491C37.7728 13.838 36.1539 10.7913 33.8013 8.35873C31.4487 5.92617 28.4577 4.20637 25.1719 3.3968" stroke="#ADFF00" stroke-width="1.5" stroke-linecap="round"/>
<path d="M12.7854 27.0232L17.3154 17.0032L17.6454 17.4832H11.1504L11.7054 16.9582V19.4482H10.6404V16.5232H18.3504V17.2882L13.9554 27.0232H12.7854ZM21.6184 27.0232L26.1484 17.0032L26.4784 17.4832H19.9834L20.5384 16.9582V19.4482H19.4734V16.5232H27.1834V17.2882L22.7884 27.0232H21.6184ZM29.1224 22.0232L33.4244 15.7232H34.1174L29.8154 22.0232H29.1224ZM29.6264 19.1072C29.3384 19.1072 29.0834 19.0352 28.8614 18.8912C28.6394 18.7472 28.4654 18.5462 28.3394 18.2882C28.2194 18.0302 28.1594 17.7302 28.1594 17.3882C28.1594 17.0462 28.2194 16.7462 28.3394 16.4882C28.4654 16.2302 28.6394 16.0292 28.8614 15.8852C29.0834 15.7412 29.3384 15.6692 29.6264 15.6692C29.9204 15.6692 30.1754 15.7412 30.3914 15.8852C30.6134 16.0292 30.7844 16.2302 30.9044 16.4882C31.0244 16.7462 31.0844 17.0462 31.0844 17.3882C31.0844 17.7302 31.0244 18.0302 30.9044 18.2882C30.7844 18.5462 30.6134 18.7472 30.3914 18.8912C30.1754 19.0352 29.9204 19.1072 29.6264 19.1072ZM29.6264 18.5942C29.9024 18.5942 30.1184 18.4892 30.2744 18.2792C30.4304 18.0632 30.5084 17.7662 30.5084 17.3882C30.5084 17.0102 30.4304 16.7162 30.2744 16.5062C30.1184 16.2902 29.9024 16.1822 29.6264 16.1822C29.3564 16.1822 29.1404 16.2902 28.9784 16.5062C28.8224 16.7162 28.7444 17.0102 28.7444 17.3882C28.7444 17.7602 28.8224 18.0542 28.9784 18.2702C29.1404 18.4862 29.3564 18.5942 29.6264 18.5942ZM33.6134 22.0772C33.3254 22.0772 33.0704 22.0052 32.8484 21.8612C32.6264 21.7172 32.4554 21.5162 32.3354 21.2582C32.2154 21.0002 32.1554 20.7002 32.1554 20.3582C32.1554 20.0162 32.2154 19.7162 32.3354 19.4582C32.4554 19.2002 32.6264 18.9992 32.8484 18.8552C33.0704 18.7112 33.3254 18.6392 33.6134 18.6392C33.9074 18.6392 34.1624 18.7112 34.3784 18.8552C34.6004 18.9992 34.7714 19.2002 34.8914 19.4582C35.0174 19.7162 35.0804 20.0162 35.0804 20.3582C35.0804 20.7002 35.0174 21.0002 34.8914 21.2582C34.7714 21.5162 34.6004 21.7172 34.3784 21.8612C34.1624 22.0052 33.9074 22.0772 33.6134 22.0772ZM33.6134 21.5642C33.8834 21.5642 34.0964 21.4592 34.2524 21.2492C34.4144 21.0332 34.4954 20.7362 34.4954 20.3582C34.4954 19.9862 34.4144 19.6922 34.2524 19.4762C34.0964 19.2602 33.8834 19.1522 33.6134 19.1522C33.3434 19.1522 33.1274 19.2602 32.9654 19.4762C32.8094 19.6862 32.7314 19.9802 32.7314 20.3582C32.7314 20.7362 32.8094 21.0332 32.9654 21.2492C33.1274 21.4592 33.3434 21.5642 33.6134 21.5642Z" fill="white"/>
</svg>
