<svg width="62" height="91" viewBox="0 0 62 91" fill="none" xmlns="http://www.w3.org/2000/svg">
<path d="M0 3.2C0 2.07989 0 1.51984 0.217987 1.09202C0.409734 0.715695 0.715695 0.409734 1.09202 0.217987C1.51984 0 2.0799 0 3.2 0H58.8C59.9201 0 60.4802 0 60.908 0.217987C61.2843 0.409734 61.5903 0.715695 61.782 1.09202C62 1.51984 62 2.0799 62 3.2V83.1956C62 85.4174 62 86.5283 61.5491 87.0804C61.1573 87.5602 60.5653 87.8314 59.946 87.8147C59.2335 87.7954 58.3923 87.0699 56.7099 85.6187L33.0901 65.2447C32.3487 64.6052 31.9779 64.2854 31.5617 64.1636C31.1949 64.0563 30.8051 64.0563 30.4383 64.1636C30.0221 64.2854 29.6513 64.6052 28.9099 65.2448L5.29011 85.6187C3.60773 87.0699 2.76655 87.7954 2.05397 87.8147C1.43472 87.8314 0.842676 87.5602 0.450864 87.0804C0 86.5283 0 85.4174 0 83.1956V3.2Z" fill="white"/>
<g clip-path="url(#clip0_305_1871)">
<path d="M28.8863 45.0912C28.8863 45.6518 29.1089 46.1894 29.5053 46.5858C29.9017 46.9822 30.4393 47.2049 30.9999 47.2049C31.5605 47.2049 32.0981 46.9822 32.4945 46.5858C32.8908 46.1894 33.1135 45.6518 33.1135 45.0912V35.9321H42.2726C42.8332 35.9321 43.3708 35.7094 43.7672 35.3131C44.1636 34.9167 44.3863 34.3791 44.3863 33.8185C44.3863 33.2579 44.1636 32.7203 43.7672 32.3239C43.3708 31.9275 42.8332 31.7049 42.2726 31.7049H33.1135V22.5458C33.1135 21.9852 32.8908 21.4476 32.4945 21.0512C32.0981 20.6548 31.5605 20.4321 30.9999 20.4321C30.4393 20.4321 29.9017 20.6548 29.5053 21.0512C29.1089 21.4476 28.8863 21.9852 28.8863 22.5458V31.7049H19.7272C19.1666 31.7049 18.629 31.9275 18.2326 32.3239C17.8362 32.7203 17.6135 33.2579 17.6135 33.8185C17.6135 34.3791 17.8362 34.9167 18.2326 35.3131C18.629 35.7094 19.1666 35.9321 19.7272 35.9321H28.8863V45.0912Z" fill="#00000E"/>
<path d="M28.8863 45.0912C28.8863 45.6518 29.1089 46.1894 29.5053 46.5858C29.9017 46.9822 30.4393 47.2049 30.9999 47.2049C31.5605 47.2049 32.0981 46.9822 32.4945 46.5858C32.8908 46.1894 33.1135 45.6518 33.1135 45.0912V35.9321H42.2726C42.8332 35.9321 43.3708 35.7094 43.7672 35.3131C44.1636 34.9167 44.3863 34.3791 44.3863 33.8185C44.3863 33.2579 44.1636 32.7203 43.7672 32.3239C43.3708 31.9275 42.8332 31.7049 42.2726 31.7049H33.1135V22.5458C33.1135 21.9852 32.8908 21.4476 32.4945 21.0512C32.0981 20.6548 31.5605 20.4321 30.9999 20.4321C30.4393 20.4321 29.9017 20.6548 29.5053 21.0512C29.1089 21.4476 28.8863 21.9852 28.8863 22.5458V31.7049H19.7272C19.1666 31.7049 18.629 31.9275 18.2326 32.3239C17.8362 32.7203 17.6135 33.2579 17.6135 33.8185C17.6135 34.3791 17.8362 34.9167 18.2326 35.3131C18.629 35.7094 19.1666 35.9321 19.7272 35.9321H28.8863V45.0912Z" fill="black" fill-opacity="0.2"/>
<path d="M28.8863 45.0912C28.8863 45.6518 29.1089 46.1894 29.5053 46.5858C29.9017 46.9822 30.4393 47.2049 30.9999 47.2049C31.5605 47.2049 32.0981 46.9822 32.4945 46.5858C32.8908 46.1894 33.1135 45.6518 33.1135 45.0912V35.9321H42.2726C42.8332 35.9321 43.3708 35.7094 43.7672 35.3131C44.1636 34.9167 44.3863 34.3791 44.3863 33.8185C44.3863 33.2579 44.1636 32.7203 43.7672 32.3239C43.3708 31.9275 42.8332 31.7049 42.2726 31.7049H33.1135V22.5458C33.1135 21.9852 32.8908 21.4476 32.4945 21.0512C32.0981 20.6548 31.5605 20.4321 30.9999 20.4321C30.4393 20.4321 29.9017 20.6548 29.5053 21.0512C29.1089 21.4476 28.8863 21.9852 28.8863 22.5458V31.7049H19.7272C19.1666 31.7049 18.629 31.9275 18.2326 32.3239C17.8362 32.7203 17.6135 33.2579 17.6135 33.8185C17.6135 34.3791 17.8362 34.9167 18.2326 35.3131C18.629 35.7094 19.1666 35.9321 19.7272 35.9321H28.8863V45.0912Z" fill="black" fill-opacity="0.2"/>
<path d="M28.8863 45.0912C28.8863 45.6518 29.1089 46.1894 29.5053 46.5858C29.9017 46.9822 30.4393 47.2049 30.9999 47.2049C31.5605 47.2049 32.0981 46.9822 32.4945 46.5858C32.8908 46.1894 33.1135 45.6518 33.1135 45.0912V35.9321H42.2726C42.8332 35.9321 43.3708 35.7094 43.7672 35.3131C44.1636 34.9167 44.3863 34.3791 44.3863 33.8185C44.3863 33.2579 44.1636 32.7203 43.7672 32.3239C43.3708 31.9275 42.8332 31.7049 42.2726 31.7049H33.1135V22.5458C33.1135 21.9852 32.8908 21.4476 32.4945 21.0512C32.0981 20.6548 31.5605 20.4321 30.9999 20.4321C30.4393 20.4321 29.9017 20.6548 29.5053 21.0512C29.1089 21.4476 28.8863 21.9852 28.8863 22.5458V31.7049H19.7272C19.1666 31.7049 18.629 31.9275 18.2326 32.3239C17.8362 32.7203 17.6135 33.2579 17.6135 33.8185C17.6135 34.3791 17.8362 34.9167 18.2326 35.3131C18.629 35.7094 19.1666 35.9321 19.7272 35.9321H28.8863V45.0912Z" fill="black" fill-opacity="0.2"/>
<path d="M28.8863 45.0912C28.8863 45.6518 29.1089 46.1894 29.5053 46.5858C29.9017 46.9822 30.4393 47.2049 30.9999 47.2049C31.5605 47.2049 32.0981 46.9822 32.4945 46.5858C32.8908 46.1894 33.1135 45.6518 33.1135 45.0912V35.9321H42.2726C42.8332 35.9321 43.3708 35.7094 43.7672 35.3131C44.1636 34.9167 44.3863 34.3791 44.3863 33.8185C44.3863 33.2579 44.1636 32.7203 43.7672 32.3239C43.3708 31.9275 42.8332 31.7049 42.2726 31.7049H33.1135V22.5458C33.1135 21.9852 32.8908 21.4476 32.4945 21.0512C32.0981 20.6548 31.5605 20.4321 30.9999 20.4321C30.4393 20.4321 29.9017 20.6548 29.5053 21.0512C29.1089 21.4476 28.8863 21.9852 28.8863 22.5458V31.7049H19.7272C19.1666 31.7049 18.629 31.9275 18.2326 32.3239C17.8362 32.7203 17.6135 33.2579 17.6135 33.8185C17.6135 34.3791 17.8362 34.9167 18.2326 35.3131C18.629 35.7094 19.1666 35.9321 19.7272 35.9321H28.8863V45.0912Z" fill="black" fill-opacity="0.2"/>
<path d="M28.8863 45.0912C28.8863 45.6518 29.1089 46.1894 29.5053 46.5858C29.9017 46.9822 30.4393 47.2049 30.9999 47.2049C31.5605 47.2049 32.0981 46.9822 32.4945 46.5858C32.8908 46.1894 33.1135 45.6518 33.1135 45.0912V35.9321H42.2726C42.8332 35.9321 43.3708 35.7094 43.7672 35.3131C44.1636 34.9167 44.3863 34.3791 44.3863 33.8185C44.3863 33.2579 44.1636 32.7203 43.7672 32.3239C43.3708 31.9275 42.8332 31.7049 42.2726 31.7049H33.1135V22.5458C33.1135 21.9852 32.8908 21.4476 32.4945 21.0512C32.0981 20.6548 31.5605 20.4321 30.9999 20.4321C30.4393 20.4321 29.9017 20.6548 29.5053 21.0512C29.1089 21.4476 28.8863 21.9852 28.8863 22.5458V31.7049H19.7272C19.1666 31.7049 18.629 31.9275 18.2326 32.3239C17.8362 32.7203 17.6135 33.2579 17.6135 33.8185C17.6135 34.3791 17.8362 34.9167 18.2326 35.3131C18.629 35.7094 19.1666 35.9321 19.7272 35.9321H28.8863V45.0912Z" fill="black" fill-opacity="0.2"/>
<path d="M28.8863 45.0912C28.8863 45.6518 29.1089 46.1894 29.5053 46.5858C29.9017 46.9822 30.4393 47.2049 30.9999 47.2049C31.5605 47.2049 32.0981 46.9822 32.4945 46.5858C32.8908 46.1894 33.1135 45.6518 33.1135 45.0912V35.9321H42.2726C42.8332 35.9321 43.3708 35.7094 43.7672 35.3131C44.1636 34.9167 44.3863 34.3791 44.3863 33.8185C44.3863 33.2579 44.1636 32.7203 43.7672 32.3239C43.3708 31.9275 42.8332 31.7049 42.2726 31.7049H33.1135V22.5458C33.1135 21.9852 32.8908 21.4476 32.4945 21.0512C32.0981 20.6548 31.5605 20.4321 30.9999 20.4321C30.4393 20.4321 29.9017 20.6548 29.5053 21.0512C29.1089 21.4476 28.8863 21.9852 28.8863 22.5458V31.7049H19.7272C19.1666 31.7049 18.629 31.9275 18.2326 32.3239C17.8362 32.7203 17.6135 33.2579 17.6135 33.8185C17.6135 34.3791 17.8362 34.9167 18.2326 35.3131C18.629 35.7094 19.1666 35.9321 19.7272 35.9321H28.8863V45.0912Z" fill="black" fill-opacity="0.2"/>
</g>
<defs>
<clipPath id="clip0_305_1871">
<rect width="33.8182" height="33.8182" fill="white" transform="translate(14.0908 16.9092)"/>
</clipPath>
</defs>
</svg>
