<svg width="20" height="28" viewBox="0 0 20 28" fill="none" xmlns="http://www.w3.org/2000/svg">
<path d="M0 3.2C0 2.0799 0 1.51984 0.217987 1.09202C0.409734 0.715695 0.715695 0.409734 1.09202 0.217987C1.51984 0 2.0799 0 3.2 0H16.05C17.1701 0 17.7302 0 18.158 0.217987C18.5343 0.409734 18.8403 0.715695 19.032 1.09202C19.25 1.51984 19.25 2.0799 19.25 3.2V21.0138C19.25 23.2355 19.25 24.3464 18.7991 24.8986C18.4073 25.3784 17.8153 25.6496 17.196 25.6329C16.4835 25.6136 15.6423 24.888 13.9599 23.4369L11.7151 21.5006C10.9737 20.861 10.6029 20.5412 10.1867 20.4194C9.81994 20.3121 9.43006 20.3121 9.06326 20.4194C8.64705 20.5412 8.27633 20.861 7.53488 21.5006L5.29011 23.4369C3.60774 24.888 2.76655 25.6136 2.05397 25.6329C1.43472 25.6496 0.842676 25.3784 0.450864 24.8986C0 24.3464 0 23.2355 0 21.0138V3.2Z" fill="white"/>
<g clip-path="url(#clip0_1156_352)">
<path d="M8.96875 14C8.96875 14.174 9.03789 14.341 9.16096 14.464C9.28403 14.5871 9.45095 14.6563 9.625 14.6563C9.79905 14.6563 9.96597 14.5871 10.089 14.464C10.2121 14.341 10.2813 14.174 10.2813 14V11.1563H13.125C13.299 11.1563 13.466 11.0871 13.589 10.964C13.7121 10.841 13.7813 10.674 13.7813 10.5C13.7813 10.326 13.7121 10.159 13.589 10.036C13.466 9.91289 13.299 9.84375 13.125 9.84375H10.2813V7C10.2813 6.82595 10.2121 6.65903 10.089 6.53596C9.96597 6.41289 9.79905 6.34375 9.625 6.34375C9.45095 6.34375 9.28403 6.41289 9.16096 6.53596C9.03789 6.65903 8.96875 6.82595 8.96875 7V9.84375H6.125C5.95095 9.84375 5.78403 9.91289 5.66096 10.036C5.53789 10.159 5.46875 10.326 5.46875 10.5C5.46875 10.674 5.53789 10.841 5.66096 10.964C5.78403 11.0871 5.95095 11.1563 6.125 11.1563H8.96875V14Z" fill="#DC03FF"/>
</g>
<defs>
<clipPath id="clip0_1156_352">
<rect width="10.5" height="10.5" fill="white" transform="translate(4.375 5.25)"/>
</clipPath>
</defs>
</svg>
