<svg width="15" height="10" viewBox="0 0 15 10" fill="none" xmlns="http://www.w3.org/2000/svg">
<path fill-rule="evenodd" clip-rule="evenodd" d="M8.59979 9.04484C8.30545 9.33629 7.90644 9.5 7.49043 9.5C7.07442 9.5 6.67541 9.33629 6.38107 9.04484L0.459577 3.17634C0.165217 2.88438 -9.80076e-05 2.48844 1.32201e-07 2.07563C4.87261e-05 1.87123 0.0407056 1.66884 0.11965 1.48002C0.198594 1.2912 0.314279 1.11964 0.4601 0.975141C0.605921 0.830641 0.779023 0.716031 0.969521 0.637856C1.16002 0.559679 1.36418 0.519466 1.57036 0.519514C1.77653 0.519563 1.98068 0.559871 2.17114 0.638136C2.3616 0.716401 2.53464 0.831092 2.6804 0.975658L7.49043 5.74433L12.3005 0.975659C12.4452 0.826945 12.6184 0.7083 12.8099 0.626644C13.0014 0.544989 13.2073 0.501959 13.4158 0.500067C13.6242 0.498174 13.8309 0.537457 14.0239 0.615621C14.2169 0.693786 14.3922 0.809268 14.5397 0.955328C14.6871 1.10139 14.8038 1.2751 14.8828 1.46634C14.9618 1.65757 15.0017 1.86249 14.9999 2.06914C14.9982 2.27579 14.955 2.48004 14.8728 2.66996C14.7907 2.85988 14.6712 3.03167 14.5213 3.17531L8.59979 9.04691L8.59979 9.04484Z" fill="#E7E7E7"/>
</svg>
