<svg width="154" height="32" viewBox="0 0 154 32" fill="none" xmlns="http://www.w3.org/2000/svg">
<rect x="0.75" y="0.75" width="152.5" height="30.5" rx="1.25" stroke="white" stroke-width="0.5"/>
<rect x="3" y="3" width="72" height="26" rx="2" fill="white"/>
<path d="M19.7111 8.45455V23H18.4185L9.82475 10.8196H9.71112V23H8.38299V8.45455H9.6685L18.2907 20.6491H18.4043V8.45455H19.7111ZM35.503 15.7273C35.503 17.2424 35.2331 18.5611 34.6934 19.6832C34.1536 20.8007 33.4102 21.6671 32.4632 22.2827C31.521 22.8935 30.4367 23.1989 29.2104 23.1989C27.9841 23.1989 26.8974 22.8935 25.9505 22.2827C25.0082 21.6671 24.2672 20.8007 23.7275 19.6832C23.1924 18.5611 22.9249 17.2424 22.9249 15.7273C22.9249 14.2121 23.1924 12.8958 23.7275 11.7784C24.2672 10.6562 25.0106 9.78977 25.9576 9.17898C26.9045 8.56345 27.9888 8.25568 29.2104 8.25568C30.4367 8.25568 31.521 8.56345 32.4632 9.17898C33.4102 9.78977 34.1536 10.6562 34.6934 11.7784C35.2331 12.8958 35.503 14.2121 35.503 15.7273ZM34.2104 15.7273C34.2104 14.4252 33.9926 13.3101 33.557 12.3821C33.1214 11.4493 32.5272 10.7367 31.7743 10.2443C31.0215 9.75189 30.1668 9.50568 29.2104 9.50568C28.2587 9.50568 27.4064 9.75189 26.6536 10.2443C25.9007 10.7367 25.3042 11.447 24.8638 12.375C24.4282 13.303 24.2104 14.4205 24.2104 15.7273C24.2104 17.0294 24.4282 18.1444 24.8638 19.0724C25.2994 20.0005 25.8936 20.7131 26.6465 21.2102C27.3993 21.7027 28.254 21.9489 29.2104 21.9489C30.1668 21.9489 31.0215 21.7027 31.7743 21.2102C32.5319 20.7178 33.1285 20.0076 33.5641 19.0795C33.9997 18.1468 34.2151 17.0294 34.2104 15.7273ZM38.715 23V8.45455H40.0431V21.8068H46.975V23H38.715ZM49.965 23V8.45455H51.2931V21.8068H58.225V23H49.965ZM59.1678 8.45455H60.7019L65.013 15.358H65.1408L69.4519 8.45455H70.986L65.7374 16.7003V23H64.4164V16.7003L59.1678 8.45455Z" fill="#00000E"/>
<path d="M19.7111 8.45455V23H18.4185L9.82475 10.8196H9.71112V23H8.38299V8.45455H9.6685L18.2907 20.6491H18.4043V8.45455H19.7111ZM35.503 15.7273C35.503 17.2424 35.2331 18.5611 34.6934 19.6832C34.1536 20.8007 33.4102 21.6671 32.4632 22.2827C31.521 22.8935 30.4367 23.1989 29.2104 23.1989C27.9841 23.1989 26.8974 22.8935 25.9505 22.2827C25.0082 21.6671 24.2672 20.8007 23.7275 19.6832C23.1924 18.5611 22.9249 17.2424 22.9249 15.7273C22.9249 14.2121 23.1924 12.8958 23.7275 11.7784C24.2672 10.6562 25.0106 9.78977 25.9576 9.17898C26.9045 8.56345 27.9888 8.25568 29.2104 8.25568C30.4367 8.25568 31.521 8.56345 32.4632 9.17898C33.4102 9.78977 34.1536 10.6562 34.6934 11.7784C35.2331 12.8958 35.503 14.2121 35.503 15.7273ZM34.2104 15.7273C34.2104 14.4252 33.9926 13.3101 33.557 12.3821C33.1214 11.4493 32.5272 10.7367 31.7743 10.2443C31.0215 9.75189 30.1668 9.50568 29.2104 9.50568C28.2587 9.50568 27.4064 9.75189 26.6536 10.2443C25.9007 10.7367 25.3042 11.447 24.8638 12.375C24.4282 13.303 24.2104 14.4205 24.2104 15.7273C24.2104 17.0294 24.4282 18.1444 24.8638 19.0724C25.2994 20.0005 25.8936 20.7131 26.6465 21.2102C27.3993 21.7027 28.254 21.9489 29.2104 21.9489C30.1668 21.9489 31.0215 21.7027 31.7743 21.2102C32.5319 20.7178 33.1285 20.0076 33.5641 19.0795C33.9997 18.1468 34.2151 17.0294 34.2104 15.7273ZM38.715 23V8.45455H40.0431V21.8068H46.975V23H38.715ZM49.965 23V8.45455H51.2931V21.8068H58.225V23H49.965ZM59.1678 8.45455H60.7019L65.013 15.358H65.1408L69.4519 8.45455H70.986L65.7374 16.7003V23H64.4164V16.7003L59.1678 8.45455Z" fill="black" fill-opacity="0.2"/>
<path d="M19.7111 8.45455V23H18.4185L9.82475 10.8196H9.71112V23H8.38299V8.45455H9.6685L18.2907 20.6491H18.4043V8.45455H19.7111ZM35.503 15.7273C35.503 17.2424 35.2331 18.5611 34.6934 19.6832C34.1536 20.8007 33.4102 21.6671 32.4632 22.2827C31.521 22.8935 30.4367 23.1989 29.2104 23.1989C27.9841 23.1989 26.8974 22.8935 25.9505 22.2827C25.0082 21.6671 24.2672 20.8007 23.7275 19.6832C23.1924 18.5611 22.9249 17.2424 22.9249 15.7273C22.9249 14.2121 23.1924 12.8958 23.7275 11.7784C24.2672 10.6562 25.0106 9.78977 25.9576 9.17898C26.9045 8.56345 27.9888 8.25568 29.2104 8.25568C30.4367 8.25568 31.521 8.56345 32.4632 9.17898C33.4102 9.78977 34.1536 10.6562 34.6934 11.7784C35.2331 12.8958 35.503 14.2121 35.503 15.7273ZM34.2104 15.7273C34.2104 14.4252 33.9926 13.3101 33.557 12.3821C33.1214 11.4493 32.5272 10.7367 31.7743 10.2443C31.0215 9.75189 30.1668 9.50568 29.2104 9.50568C28.2587 9.50568 27.4064 9.75189 26.6536 10.2443C25.9007 10.7367 25.3042 11.447 24.8638 12.375C24.4282 13.303 24.2104 14.4205 24.2104 15.7273C24.2104 17.0294 24.4282 18.1444 24.8638 19.0724C25.2994 20.0005 25.8936 20.7131 26.6465 21.2102C27.3993 21.7027 28.254 21.9489 29.2104 21.9489C30.1668 21.9489 31.0215 21.7027 31.7743 21.2102C32.5319 20.7178 33.1285 20.0076 33.5641 19.0795C33.9997 18.1468 34.2151 17.0294 34.2104 15.7273ZM38.715 23V8.45455H40.0431V21.8068H46.975V23H38.715ZM49.965 23V8.45455H51.2931V21.8068H58.225V23H49.965ZM59.1678 8.45455H60.7019L65.013 15.358H65.1408L69.4519 8.45455H70.986L65.7374 16.7003V23H64.4164V16.7003L59.1678 8.45455Z" fill="black" fill-opacity="0.2"/>
<path d="M19.7111 8.45455V23H18.4185L9.82475 10.8196H9.71112V23H8.38299V8.45455H9.6685L18.2907 20.6491H18.4043V8.45455H19.7111ZM35.503 15.7273C35.503 17.2424 35.2331 18.5611 34.6934 19.6832C34.1536 20.8007 33.4102 21.6671 32.4632 22.2827C31.521 22.8935 30.4367 23.1989 29.2104 23.1989C27.9841 23.1989 26.8974 22.8935 25.9505 22.2827C25.0082 21.6671 24.2672 20.8007 23.7275 19.6832C23.1924 18.5611 22.9249 17.2424 22.9249 15.7273C22.9249 14.2121 23.1924 12.8958 23.7275 11.7784C24.2672 10.6562 25.0106 9.78977 25.9576 9.17898C26.9045 8.56345 27.9888 8.25568 29.2104 8.25568C30.4367 8.25568 31.521 8.56345 32.4632 9.17898C33.4102 9.78977 34.1536 10.6562 34.6934 11.7784C35.2331 12.8958 35.503 14.2121 35.503 15.7273ZM34.2104 15.7273C34.2104 14.4252 33.9926 13.3101 33.557 12.3821C33.1214 11.4493 32.5272 10.7367 31.7743 10.2443C31.0215 9.75189 30.1668 9.50568 29.2104 9.50568C28.2587 9.50568 27.4064 9.75189 26.6536 10.2443C25.9007 10.7367 25.3042 11.447 24.8638 12.375C24.4282 13.303 24.2104 14.4205 24.2104 15.7273C24.2104 17.0294 24.4282 18.1444 24.8638 19.0724C25.2994 20.0005 25.8936 20.7131 26.6465 21.2102C27.3993 21.7027 28.254 21.9489 29.2104 21.9489C30.1668 21.9489 31.0215 21.7027 31.7743 21.2102C32.5319 20.7178 33.1285 20.0076 33.5641 19.0795C33.9997 18.1468 34.2151 17.0294 34.2104 15.7273ZM38.715 23V8.45455H40.0431V21.8068H46.975V23H38.715ZM49.965 23V8.45455H51.2931V21.8068H58.225V23H49.965ZM59.1678 8.45455H60.7019L65.013 15.358H65.1408L69.4519 8.45455H70.986L65.7374 16.7003V23H64.4164V16.7003L59.1678 8.45455Z" fill="black" fill-opacity="0.2"/>
<path d="M19.7111 8.45455V23H18.4185L9.82475 10.8196H9.71112V23H8.38299V8.45455H9.6685L18.2907 20.6491H18.4043V8.45455H19.7111ZM35.503 15.7273C35.503 17.2424 35.2331 18.5611 34.6934 19.6832C34.1536 20.8007 33.4102 21.6671 32.4632 22.2827C31.521 22.8935 30.4367 23.1989 29.2104 23.1989C27.9841 23.1989 26.8974 22.8935 25.9505 22.2827C25.0082 21.6671 24.2672 20.8007 23.7275 19.6832C23.1924 18.5611 22.9249 17.2424 22.9249 15.7273C22.9249 14.2121 23.1924 12.8958 23.7275 11.7784C24.2672 10.6562 25.0106 9.78977 25.9576 9.17898C26.9045 8.56345 27.9888 8.25568 29.2104 8.25568C30.4367 8.25568 31.521 8.56345 32.4632 9.17898C33.4102 9.78977 34.1536 10.6562 34.6934 11.7784C35.2331 12.8958 35.503 14.2121 35.503 15.7273ZM34.2104 15.7273C34.2104 14.4252 33.9926 13.3101 33.557 12.3821C33.1214 11.4493 32.5272 10.7367 31.7743 10.2443C31.0215 9.75189 30.1668 9.50568 29.2104 9.50568C28.2587 9.50568 27.4064 9.75189 26.6536 10.2443C25.9007 10.7367 25.3042 11.447 24.8638 12.375C24.4282 13.303 24.2104 14.4205 24.2104 15.7273C24.2104 17.0294 24.4282 18.1444 24.8638 19.0724C25.2994 20.0005 25.8936 20.7131 26.6465 21.2102C27.3993 21.7027 28.254 21.9489 29.2104 21.9489C30.1668 21.9489 31.0215 21.7027 31.7743 21.2102C32.5319 20.7178 33.1285 20.0076 33.5641 19.0795C33.9997 18.1468 34.2151 17.0294 34.2104 15.7273ZM38.715 23V8.45455H40.0431V21.8068H46.975V23H38.715ZM49.965 23V8.45455H51.2931V21.8068H58.225V23H49.965ZM59.1678 8.45455H60.7019L65.013 15.358H65.1408L69.4519 8.45455H70.986L65.7374 16.7003V23H64.4164V16.7003L59.1678 8.45455Z" fill="black" fill-opacity="0.2"/>
<path d="M19.7111 8.45455V23H18.4185L9.82475 10.8196H9.71112V23H8.38299V8.45455H9.6685L18.2907 20.6491H18.4043V8.45455H19.7111ZM35.503 15.7273C35.503 17.2424 35.2331 18.5611 34.6934 19.6832C34.1536 20.8007 33.4102 21.6671 32.4632 22.2827C31.521 22.8935 30.4367 23.1989 29.2104 23.1989C27.9841 23.1989 26.8974 22.8935 25.9505 22.2827C25.0082 21.6671 24.2672 20.8007 23.7275 19.6832C23.1924 18.5611 22.9249 17.2424 22.9249 15.7273C22.9249 14.2121 23.1924 12.8958 23.7275 11.7784C24.2672 10.6562 25.0106 9.78977 25.9576 9.17898C26.9045 8.56345 27.9888 8.25568 29.2104 8.25568C30.4367 8.25568 31.521 8.56345 32.4632 9.17898C33.4102 9.78977 34.1536 10.6562 34.6934 11.7784C35.2331 12.8958 35.503 14.2121 35.503 15.7273ZM34.2104 15.7273C34.2104 14.4252 33.9926 13.3101 33.557 12.3821C33.1214 11.4493 32.5272 10.7367 31.7743 10.2443C31.0215 9.75189 30.1668 9.50568 29.2104 9.50568C28.2587 9.50568 27.4064 9.75189 26.6536 10.2443C25.9007 10.7367 25.3042 11.447 24.8638 12.375C24.4282 13.303 24.2104 14.4205 24.2104 15.7273C24.2104 17.0294 24.4282 18.1444 24.8638 19.0724C25.2994 20.0005 25.8936 20.7131 26.6465 21.2102C27.3993 21.7027 28.254 21.9489 29.2104 21.9489C30.1668 21.9489 31.0215 21.7027 31.7743 21.2102C32.5319 20.7178 33.1285 20.0076 33.5641 19.0795C33.9997 18.1468 34.2151 17.0294 34.2104 15.7273ZM38.715 23V8.45455H40.0431V21.8068H46.975V23H38.715ZM49.965 23V8.45455H51.2931V21.8068H58.225V23H49.965ZM59.1678 8.45455H60.7019L65.013 15.358H65.1408L69.4519 8.45455H70.986L65.7374 16.7003V23H64.4164V16.7003L59.1678 8.45455Z" fill="black" fill-opacity="0.2"/>
<path d="M19.7111 8.45455V23H18.4185L9.82475 10.8196H9.71112V23H8.38299V8.45455H9.6685L18.2907 20.6491H18.4043V8.45455H19.7111ZM35.503 15.7273C35.503 17.2424 35.2331 18.5611 34.6934 19.6832C34.1536 20.8007 33.4102 21.6671 32.4632 22.2827C31.521 22.8935 30.4367 23.1989 29.2104 23.1989C27.9841 23.1989 26.8974 22.8935 25.9505 22.2827C25.0082 21.6671 24.2672 20.8007 23.7275 19.6832C23.1924 18.5611 22.9249 17.2424 22.9249 15.7273C22.9249 14.2121 23.1924 12.8958 23.7275 11.7784C24.2672 10.6562 25.0106 9.78977 25.9576 9.17898C26.9045 8.56345 27.9888 8.25568 29.2104 8.25568C30.4367 8.25568 31.521 8.56345 32.4632 9.17898C33.4102 9.78977 34.1536 10.6562 34.6934 11.7784C35.2331 12.8958 35.503 14.2121 35.503 15.7273ZM34.2104 15.7273C34.2104 14.4252 33.9926 13.3101 33.557 12.3821C33.1214 11.4493 32.5272 10.7367 31.7743 10.2443C31.0215 9.75189 30.1668 9.50568 29.2104 9.50568C28.2587 9.50568 27.4064 9.75189 26.6536 10.2443C25.9007 10.7367 25.3042 11.447 24.8638 12.375C24.4282 13.303 24.2104 14.4205 24.2104 15.7273C24.2104 17.0294 24.4282 18.1444 24.8638 19.0724C25.2994 20.0005 25.8936 20.7131 26.6465 21.2102C27.3993 21.7027 28.254 21.9489 29.2104 21.9489C30.1668 21.9489 31.0215 21.7027 31.7743 21.2102C32.5319 20.7178 33.1285 20.0076 33.5641 19.0795C33.9997 18.1468 34.2151 17.0294 34.2104 15.7273ZM38.715 23V8.45455H40.0431V21.8068H46.975V23H38.715ZM49.965 23V8.45455H51.2931V21.8068H58.225V23H49.965ZM59.1678 8.45455H60.7019L65.013 15.358H65.1408L69.4519 8.45455H70.986L65.7374 16.7003V23H64.4164V16.7003L59.1678 8.45455Z" fill="black" fill-opacity="0.2"/>
<path d="M86.9631 12.8153C86.9157 12.2945 86.705 11.8897 86.331 11.6009C85.9616 11.3073 85.4337 11.1605 84.7472 11.1605C84.2926 11.1605 83.9138 11.2197 83.6108 11.3381C83.3078 11.4564 83.0805 11.6198 82.929 11.8281C82.7775 12.0317 82.6993 12.2661 82.6946 12.5312C82.6851 12.7491 82.7277 12.9408 82.8224 13.1065C82.9219 13.2723 83.0639 13.419 83.2486 13.5469C83.438 13.67 83.6652 13.7789 83.9304 13.8736C84.1955 13.9683 84.4938 14.0511 84.8253 14.1222L86.0753 14.4062C86.795 14.5625 87.4295 14.7708 87.9787 15.0312C88.5327 15.2917 88.9967 15.6018 89.3707 15.9616C89.7495 16.3215 90.036 16.7358 90.2301 17.2045C90.4242 17.6733 90.5237 18.1989 90.5284 18.7812C90.5237 19.6998 90.2917 20.4882 89.8324 21.1463C89.3731 21.8045 88.7126 22.3087 87.8509 22.6591C86.9938 23.0095 85.9593 23.1847 84.7472 23.1847C83.5303 23.1847 82.4697 23.0024 81.5653 22.6378C80.661 22.2732 79.9579 21.7192 79.456 20.9759C78.9541 20.2325 78.696 19.2926 78.6818 18.1562H82.0483C82.0767 18.625 82.2022 19.0156 82.4247 19.3281C82.6473 19.6406 82.9527 19.8774 83.3409 20.0384C83.7339 20.1993 84.1884 20.2798 84.7045 20.2798C85.178 20.2798 85.5805 20.2159 85.9119 20.0881C86.2481 19.9602 86.5062 19.7827 86.6861 19.5554C86.866 19.3281 86.9583 19.0677 86.9631 18.7741C86.9583 18.4995 86.8731 18.2652 86.7074 18.071C86.5417 17.8722 86.286 17.7017 85.9403 17.5597C85.5994 17.4129 85.1638 17.2779 84.6335 17.1548L83.1136 16.7997C81.8542 16.5109 80.8622 16.0445 80.1378 15.4006C79.4134 14.7519 79.0535 13.8759 79.0582 12.7727C79.0535 11.8731 79.295 11.0848 79.7827 10.4077C80.2704 9.73059 80.9451 9.20265 81.8068 8.82386C82.6686 8.44508 83.651 8.25568 84.7543 8.25568C85.8812 8.25568 86.8589 8.44744 87.6875 8.83097C88.5208 9.20975 89.1671 9.74242 89.6264 10.429C90.0857 11.1155 90.3201 11.911 90.3295 12.8153H86.9631ZM105.507 13.7244H101.956C101.909 13.3598 101.812 13.0308 101.665 12.7372C101.518 12.4437 101.324 12.1927 101.082 11.9844C100.841 11.776 100.554 11.6174 100.223 11.5085C99.8963 11.3949 99.5341 11.3381 99.1364 11.3381C98.4309 11.3381 97.8224 11.5109 97.3111 11.8565C96.8045 12.2022 96.4138 12.7017 96.1392 13.3551C95.8693 14.0085 95.7344 14.7992 95.7344 15.7273C95.7344 16.6932 95.8717 17.5028 96.1463 18.1562C96.4257 18.8049 96.8163 19.295 97.3182 19.6264C97.8248 19.9531 98.4238 20.1165 99.1151 20.1165C99.5033 20.1165 99.8561 20.0668 100.173 19.9673C100.495 19.8679 100.777 19.7235 101.018 19.5341C101.265 19.34 101.466 19.1056 101.622 18.831C101.783 18.5516 101.894 18.2367 101.956 17.8864L105.507 17.9077C105.446 18.5516 105.259 19.1861 104.946 19.8111C104.638 20.4361 104.214 21.0066 103.675 21.5227C103.135 22.0341 102.477 22.4413 101.7 22.7443C100.929 23.0473 100.043 23.1989 99.044 23.1989C97.7277 23.1989 96.5488 22.91 95.5071 22.3324C94.4702 21.75 93.651 20.9025 93.0497 19.7898C92.4484 18.6771 92.1477 17.3229 92.1477 15.7273C92.1477 14.1269 92.4531 12.7704 93.0639 11.6577C93.6747 10.545 94.5009 9.69981 95.5426 9.12216C96.5843 8.54451 97.7514 8.25568 99.044 8.25568C99.9247 8.25568 100.739 8.37879 101.487 8.625C102.235 8.86648 102.893 9.22159 103.462 9.69034C104.03 10.1544 104.491 10.7249 104.847 11.402C105.202 12.0791 105.422 12.8532 105.507 13.7244ZM121.248 15.7273C121.248 17.3277 120.94 18.6842 120.324 19.7969C119.709 20.9096 118.875 21.7547 117.824 22.3324C116.778 22.91 115.604 23.1989 114.301 23.1989C112.995 23.1989 111.818 22.9077 110.772 22.3253C109.725 21.7429 108.894 20.8977 108.279 19.7898C107.668 18.6771 107.363 17.3229 107.363 15.7273C107.363 14.1269 107.668 12.7704 108.279 11.6577C108.894 10.545 109.725 9.69981 110.772 9.12216C111.818 8.54451 112.995 8.25568 114.301 8.25568C115.604 8.25568 116.778 8.54451 117.824 9.12216C118.875 9.69981 119.709 10.545 120.324 11.6577C120.94 12.7704 121.248 14.1269 121.248 15.7273ZM117.654 15.7273C117.654 14.7803 117.519 13.9801 117.249 13.3267C116.984 12.6733 116.6 12.1785 116.098 11.8423C115.601 11.5062 115.002 11.3381 114.301 11.3381C113.605 11.3381 113.007 11.5062 112.505 11.8423C112.003 12.1785 111.617 12.6733 111.347 13.3267C111.082 13.9801 110.949 14.7803 110.949 15.7273C110.949 16.6742 111.082 17.4744 111.347 18.1278C111.617 18.7812 112.003 19.276 112.505 19.6122C113.007 19.9484 113.605 20.1165 114.301 20.1165C115.002 20.1165 115.601 19.9484 116.098 19.6122C116.6 19.276 116.984 18.7812 117.249 18.1278C117.519 17.4744 117.654 16.6742 117.654 15.7273ZM123.3 23V8.45455H129.309C130.398 8.45455 131.337 8.65104 132.128 9.04403C132.924 9.43229 133.537 9.991 133.968 10.7202C134.399 11.4446 134.614 12.304 134.614 13.2983C134.614 14.3068 134.394 15.1638 133.953 15.8693C133.513 16.5701 132.888 17.1051 132.078 17.4744C131.269 17.839 130.31 18.0213 129.202 18.0213H125.402V15.2514H128.549C129.079 15.2514 129.522 15.1828 129.877 15.0455C130.237 14.9034 130.509 14.6903 130.694 14.4062C130.878 14.1174 130.971 13.7481 130.971 13.2983C130.971 12.8485 130.878 12.4768 130.694 12.1832C130.509 11.8849 130.237 11.6624 129.877 11.5156C129.517 11.3641 129.074 11.2884 128.549 11.2884H126.816V23H123.3ZM131.489 16.3523L135.111 23H131.276L127.725 16.3523H131.489ZM136.542 23V8.45455H146.684V11.3097H140.058V14.2926H146.166V17.1548H140.058V20.1449H146.684V23H136.542Z" fill="white"/>
</svg>
