<svg width="28" height="26" viewBox="0 0 28 26" fill="none" xmlns="http://www.w3.org/2000/svg">
<path d="M25.15 26L15.7 16.9C14.95 17.4778 14.0875 17.9352 13.1125 18.2722C12.1375 18.6093 11.1 18.7778 10 18.7778C7.275 18.7778 4.969 17.8687 3.082 16.0507C1.195 14.2326 0.251 12.012 0.25 9.38889C0.25 6.76481 1.194 4.54422 3.082 2.72711C4.97 0.91 7.276 0.000962963 10 0C12.725 0 15.0315 0.909037 16.9195 2.72711C18.8075 4.54519 19.751 6.76578 19.75 9.38889C19.75 10.4481 19.575 11.4472 19.225 12.3861C18.875 13.325 18.4 14.1556 17.8 14.8778L27.25 23.9778L25.15 26ZM10 15.8889C11.875 15.8889 13.469 15.2572 14.782 13.9938C16.095 12.7304 16.751 11.1954 16.75 9.38889C16.75 7.58333 16.094 6.04885 14.782 4.78544C13.47 3.52204 11.876 2.88985 10 2.88889C8.125 2.88889 6.5315 3.52107 5.2195 4.78544C3.9075 6.04982 3.251 7.5843 3.25 9.38889C3.25 11.1944 3.9065 12.7294 5.2195 13.9938C6.5325 15.2581 8.126 15.8899 10 15.8889Z" fill="white"/>
</svg>
