<svg width="25" height="25" viewBox="0 0 25 25" fill="none" xmlns="http://www.w3.org/2000/svg">
<path d="M23.0005 12.7331C23.0005 11.8698 22.9291 11.2398 22.7744 10.5864H12.7148V14.483H18.6196C18.5006 15.4514 17.8577 16.9097 16.4291 17.8897L16.4091 18.0202L19.5897 20.4349L19.8101 20.4564C21.8338 18.6247 23.0005 15.9297 23.0005 12.7331Z" fill="#5A96F5"/>
<path d="M12.714 23.0001C15.6068 23.0001 18.0353 22.0667 19.8092 20.4567L16.4282 17.89C15.5235 18.5083 14.3092 18.94 12.714 18.94C9.88069 18.94 7.47596 17.1083 6.61874 14.5767L6.49309 14.5871L3.18583 17.0955L3.14258 17.2133C4.90446 20.6433 8.5235 23.0001 12.714 23.0001Z" fill="#3ABB5D"/>
<path d="M6.62095 14.5765C6.39476 13.9232 6.26386 13.2231 6.26386 12.4998C6.26386 11.7764 6.39476 11.0765 6.60905 10.4231L6.60306 10.284L3.25435 7.73535L3.14478 7.78642C2.41862 9.20977 2.00195 10.8081 2.00195 12.4998C2.00195 14.1915 2.41862 15.7897 3.14478 17.2131L6.62095 14.5765Z" fill="#FBC41E"/>
<path d="M12.7141 6.05997C14.7259 6.05997 16.083 6.91163 16.8569 7.62335L19.8807 4.73C18.0236 3.03834 15.6069 2 12.7141 2C8.52353 2 4.90447 4.35665 3.14258 7.78662L6.60686 10.4233C7.47598 7.89166 9.88073 6.05997 12.7141 6.05997Z" fill="#ED5A4C"/>
</svg>
