<svg width="29" height="28" viewBox="0 0 29 28" fill="none" xmlns="http://www.w3.org/2000/svg">
<path d="M10.8151 24.5C7.98452 24.5 5.3459 23.6767 3.125 22.2562C5.01062 22.3782 8.33831 22.086 10.4081 20.1117C7.29444 19.9688 5.89023 17.5808 5.70707 16.5602C5.97163 16.6623 7.23339 16.7847 7.94567 16.499C4.36391 15.6009 3.81444 12.4577 3.93654 11.4984C4.60812 11.9678 5.74777 12.1311 6.19549 12.0903C2.85794 9.70221 4.05865 6.10991 4.64882 5.33431C7.04397 8.65258 10.6336 10.5162 15.0743 10.6199C14.9906 10.2527 14.9464 9.87037 14.9464 9.47769C14.9464 6.65955 17.2242 4.375 20.0341 4.375C21.5022 4.375 22.8251 4.99866 23.7537 5.99623C24.7348 5.76634 26.2113 5.22818 26.9331 4.7628C26.5692 6.06909 25.4366 7.1588 24.7514 7.56269C24.7458 7.54889 24.7571 7.57643 24.7514 7.56269C25.3533 7.47166 26.9817 7.1587 27.625 6.72224C27.3069 7.45609 26.106 8.67626 25.1205 9.35937C25.3039 17.4458 19.1169 24.5 10.8151 24.5Z" fill="#72C0E7"/>
</svg>
