<svg width="15" height="25" viewBox="0 0 15 25" fill="none" xmlns="http://www.w3.org/2000/svg">
<path fill-rule="evenodd" clip-rule="evenodd" d="M0.758601 10.667C0.272844 11.1576 -1.15201e-06 11.8226 -1.09139e-06 12.516C-1.03078e-06 13.2093 0.272844 13.8743 0.758601 14.3649L10.5394 24.234C11.026 24.7246 11.6859 25.0002 12.3739 25C12.7146 24.9999 13.0519 24.9322 13.3666 24.8006C13.6813 24.669 13.9673 24.4762 14.2081 24.2332C14.4489 23.9901 14.6399 23.7016 14.7702 23.3841C14.9005 23.0666 14.9676 22.7264 14.9675 22.3827C14.9674 22.0391 14.9002 21.6989 14.7698 21.3814C14.6393 21.064 14.4482 20.7756 14.2072 20.5327L6.25945 12.516L14.2072 4.49923C14.4551 4.25799 14.6528 3.96937 14.7889 3.65023C14.925 3.33108 14.9967 2.98779 14.9999 2.64038C15.003 2.29298 14.9376 1.94842 14.8073 1.62681C14.677 1.3052 14.4846 1.01298 14.2411 0.767203C13.9977 0.521426 13.7082 0.327012 13.3894 0.195304C13.0707 0.0635956 12.7292 -0.00276486 12.3848 8.85627e-05C12.0403 0.00294199 11.6999 0.0749521 11.3834 0.211925C11.0669 0.348897 10.7806 0.548083 10.5412 0.797862L0.755143 10.667L0.758601 10.667Z" fill="white"/>
</svg>
