<svg width="64" height="64" viewBox="0 0 64 64" fill="none" xmlns="http://www.w3.org/2000/svg">
<path d="M32 0C40.4869 0 48.6263 3.37142 54.6274 9.37258C60.6286 15.3737 64 23.5131 64 32C64 40.4869 60.6286 48.6263 54.6274 54.6274C48.6263 60.6286 40.4869 64 32 64C23.5131 64 15.3737 60.6286 9.37258 54.6274C3.37142 48.6263 0 40.4869 0 32C0 23.5131 3.37142 15.3737 9.37258 9.37258C15.3737 3.37142 23.5131 0 32 0ZM6 32C6 38.8956 8.73928 45.5088 13.6152 50.3848C18.4912 55.2607 25.1044 58 32 58C38.8956 58 45.5088 55.2607 50.3848 50.3848C55.2607 45.5088 58 38.8956 58 32C58 25.1044 55.2607 18.4912 50.3848 13.6152C45.5088 8.73928 38.8956 6 32 6C25.1044 6 18.4912 8.73928 13.6152 13.6152C8.73928 18.4912 6 25.1044 6 32ZM25.516 20.908L42.572 31.144C42.7194 31.233 42.8413 31.3586 42.9259 31.5086C43.0106 31.6585 43.055 31.8278 43.055 32C43.055 32.1722 43.0106 32.3415 42.9259 32.4914C42.8413 32.6414 42.7194 32.767 42.572 32.856L25.516 43.092C25.3643 43.1834 25.1911 43.2328 25.0141 43.2353C24.837 43.2378 24.6625 43.1932 24.5083 43.1062C24.3541 43.0191 24.2258 42.8927 24.1365 42.7398C24.0472 42.5869 24.0001 42.4131 24 42.236V21.768C23.9994 21.5906 24.046 21.4162 24.135 21.2628C24.224 21.1093 24.3523 20.9823 24.5066 20.8948C24.6609 20.8073 24.8357 20.7624 25.0131 20.7647C25.1905 20.767 25.364 20.8165 25.516 20.908Z" fill="white"/>
</svg>
