<svg width="36" height="56" viewBox="0 0 36 56" fill="none" xmlns="http://www.w3.org/2000/svg">
<path d="M0 0H36V55.5L18 39.0436L0 55.5V0Z" fill="#00000E" fill-opacity="0.6"/>
<path d="M17.6665 30.2314C17.6665 30.5454 17.7952 30.8466 18.0244 31.0686C18.2537 31.2907 18.5645 31.4154 18.8887 31.4154C19.2128 31.4154 19.5237 31.2907 19.7529 31.0686C19.9821 30.8466 20.1109 30.5454 20.1109 30.2314V25.1006H25.4072C25.7314 25.1006 26.0422 24.9759 26.2715 24.7538C26.5007 24.5318 26.6294 24.2306 26.6294 23.9166C26.6294 23.6025 26.5007 23.3014 26.2715 23.0793C26.0422 22.8573 25.7314 22.7325 25.4072 22.7325H20.1109V17.6018C20.1109 17.2877 19.9821 16.9866 19.7529 16.7645C19.5237 16.5425 19.2128 16.4177 18.8887 16.4177C18.5645 16.4177 18.2537 16.5425 18.0244 16.7645C17.7952 16.9866 17.6665 17.2877 17.6665 17.6018V22.7325H12.3702C12.046 22.7325 11.7351 22.8573 11.5059 23.0793C11.2767 23.3014 11.1479 23.6025 11.1479 23.9166C11.1479 24.2306 11.2767 24.5318 11.5059 24.7538C11.7351 24.9759 12.046 25.1006 12.3702 25.1006H17.6665V30.2314Z" fill="white"/>
</svg>
