<svg width="16" height="16" viewBox="0 0 16 16" fill="none" xmlns="http://www.w3.org/2000/svg">
<path fill-rule="evenodd" clip-rule="evenodd" d="M14.9517 7.99999C14.9517 7.35312 14.6204 6.70624 13.9573 6.34561L5.94979 1.99062C4.66041 1.28999 3.07666 2.20249 3.07666 3.64562V7.99999H14.9517Z" fill="#00000E"/>
<path fill-rule="evenodd" clip-rule="evenodd" d="M14.9517 7.99999C14.9517 7.35312 14.6204 6.70624 13.9573 6.34561L5.94979 1.99062C4.66041 1.28999 3.07666 2.20249 3.07666 3.64562V7.99999H14.9517Z" fill="black" fill-opacity="0.2"/>
<path fill-rule="evenodd" clip-rule="evenodd" d="M14.9517 7.99999C14.9517 7.35312 14.6204 6.70624 13.9573 6.34561L5.94979 1.99062C4.66041 1.28999 3.07666 2.20249 3.07666 3.64562V7.99999H14.9517Z" fill="black" fill-opacity="0.2"/>
<path fill-rule="evenodd" clip-rule="evenodd" d="M14.9517 7.99999C14.9517 7.35312 14.6204 6.70624 13.9573 6.34561L5.94979 1.99062C4.66041 1.28999 3.07666 2.20249 3.07666 3.64562V7.99999H14.9517Z" fill="black" fill-opacity="0.2"/>
<path fill-rule="evenodd" clip-rule="evenodd" d="M14.9517 7.99999C14.9517 7.35312 14.6204 6.70624 13.9573 6.34561L5.94979 1.99062C4.66041 1.28999 3.07666 2.20249 3.07666 3.64562V7.99999H14.9517Z" fill="black" fill-opacity="0.2"/>
<path fill-rule="evenodd" clip-rule="evenodd" d="M14.9517 7.99999C14.9517 7.35312 14.6204 6.70624 13.9573 6.34561L5.94979 1.99062C4.66041 1.28999 3.07666 2.20249 3.07666 3.64562V7.99999H14.9517Z" fill="black" fill-opacity="0.2"/>
<path fill-rule="evenodd" clip-rule="evenodd" d="M14.9517 7.99999C14.9517 7.35312 14.6204 6.70624 13.9573 6.34561L5.94979 1.99062C4.66041 1.28999 3.07666 2.20249 3.07666 3.64562V7.99999H14.9517Z" fill="black" fill-opacity="0.2"/>
<path opacity="0.5" d="M5.94979 14.0087L13.9573 9.65438C14.258 9.49533 14.5095 9.25718 14.6848 8.96562C14.86 8.67406 14.9523 8.34017 14.9517 8H3.07666V12.3544C3.07666 13.7981 4.66041 14.7094 5.94979 14.0087Z" fill="#33346D"/>
</svg>
