<svg width="17" height="16" viewBox="0 0 17 16" fill="none" xmlns="http://www.w3.org/2000/svg">
<path d="M5.38767 15.2407C4.25163 15.9262 2.85039 14.9076 3.15196 13.6155L3.79154 10.8751C3.9181 10.3328 3.73385 9.76507 3.313 9.40045L1.18057 7.55301C0.17864 6.68497 0.712724 5.03918 2.03344 4.92488L4.84243 4.68179C5.39553 4.63393 5.87695 4.28449 6.09387 3.77346L7.19671 1.17528C7.71392 -0.0432239 9.44089 -0.0432849 9.95819 1.17518L11.0608 3.77224C11.2777 4.28321 11.7591 4.6326 12.3121 4.68047L15.1206 4.92355C16.4412 5.03786 16.9753 6.68346 15.9736 7.55155L13.8415 9.39912C13.4207 9.76374 13.2366 10.3314 13.3631 10.8736L14.0029 13.6149C14.3044 14.9069 12.9034 15.9255 11.7674 15.2403L9.35224 13.7834C8.87565 13.4959 8.27905 13.496 7.8025 13.7836L5.38767 15.2407Z" fill="#666791"/>
</svg>
